<?xml version="1.0" encoding="utf-8"?>
<!-- Generator: Adobe Adobe Illustrator 24.2.0, SVG Export Plug-In . SVG Version: 6.00 Build 0)  -->
<svg version="1.1" xmlns="http://www.w3.org/2000/svg" xmlns:xlink="http://www.w3.org/1999/xlink" x="0px" y="0px"
	 viewBox="0 0 250 320" style="enable-background:new 0 0 250 320;" xml:space="preserve">
<style type="text/css">
	.st0{fill:#2C0078;}
	.st1{fill:#EDA514;}
	.st2{fill:#2C0078;stroke:#380A0A;stroke-width:0.8291;stroke-miterlimit:10;}
	.st3{fill:url(#SVGID_1_);}
	.st4{fill:url(#SVGID_2_);}
	.st5{fill:#370003;}
	.st6{opacity:0.8902;}
	.st7{fill:none;stroke:#370003;stroke-width:0.4087;stroke-miterlimit:10;}
	.st8{fill:none;stroke:#370003;stroke-width:0.3001;stroke-miterlimit:10;}
	.st9{fill:none;stroke:#A6720A;stroke-linejoin:round;stroke-miterlimit:10;}
	.st10{fill:none;stroke:#A6720A;stroke-miterlimit:10;}
	.st11{fill:url(#SVGID_3_);stroke:#000000;stroke-miterlimit:10;}
	.st12{fill:url(#SVGID_4_);stroke:#000000;stroke-miterlimit:10;}
	.st13{fill:url(#SVGID_5_);stroke:#000000;stroke-miterlimit:10;}
	.st14{fill:url(#SVGID_6_);stroke:#000000;stroke-miterlimit:10;}
	.st15{fill:url(#SVGID_7_);}
	.st16{fill:url(#SVGID_8_);}
	.st17{opacity:0.8392;}
	.st18{fill:#B37B50;}
	.st19{fill:#380A0A;}
	.st20{fill:#A6720A;}
	.st21{fill:none;stroke:#380A0A;stroke-width:0.5304;stroke-miterlimit:10;}
	.st22{fill:#380A0A;stroke:#000000;stroke-width:0.5304;stroke-miterlimit:10;}
	.st23{fill:#B37B50;stroke:#380A0A;stroke-width:1.3576;stroke-miterlimit:10;}
	.st24{fill:#A6720A;stroke:#380A0A;stroke-width:2;stroke-linejoin:round;stroke-miterlimit:10;}
	.st25{fill:#A6720A;stroke:#380A0A;stroke-width:1.8889;stroke-linejoin:round;stroke-miterlimit:10;}
	.st26{fill:#A6720A;stroke:#380A0A;stroke-width:1.7778;stroke-linejoin:round;stroke-miterlimit:10;}
	.st27{fill:#A6720A;stroke:#380A0A;stroke-width:1.6667;stroke-linejoin:round;stroke-miterlimit:10;}
	.st28{fill:#A6720A;stroke:#380A0A;stroke-width:1.5556;stroke-linejoin:round;stroke-miterlimit:10;}
	.st29{fill:#A6720A;stroke:#380A0A;stroke-width:1.4444;stroke-linejoin:round;stroke-miterlimit:10;}
	.st30{fill:#A6720A;stroke:#380A0A;stroke-width:1.3333;stroke-linejoin:round;stroke-miterlimit:10;}
	.st31{fill:#A6720A;stroke:#380A0A;stroke-width:1.1111;stroke-linejoin:round;stroke-miterlimit:10;}
	.st32{fill:#A6720A;stroke:#380A0A;stroke-linejoin:round;stroke-miterlimit:10;}
	.st33{fill:#A6720A;stroke:#380A0A;stroke-width:0.7778;stroke-linejoin:round;stroke-miterlimit:10;}
	.st34{fill:#A6720A;stroke:#380A0A;stroke-width:0.3333;stroke-linejoin:round;stroke-miterlimit:10;}
	.st35{fill:#2C0078;stroke:#A6720A;stroke-width:2.2221;stroke-miterlimit:10;}
	.st36{opacity:0;fill:none;stroke:#EDA514;stroke-width:3;stroke-miterlimit:10;}
	.st37{fill:url(#BackgroundHorizontal_2_);}
	.st38{fill:none;stroke:#A6720A;stroke-width:2.0268;stroke-miterlimit:10;}
	.st39{opacity:0;fill:none;stroke:#EDA514;stroke-width:2.7363;stroke-miterlimit:10;}
	.st40{fill:none;stroke:#370003;stroke-width:0.5304;stroke-miterlimit:10;}
	.st41{fill:#8F853F;}
	.st42{fill:none;stroke:#370003;stroke-width:2.0268;stroke-miterlimit:10;}
	.st43{fill:none;stroke:#852C08;stroke-miterlimit:10;}
	.st44{fill:#852D09;}
	.st45{fill:#B35095;}
	.st46{fill:none;stroke:#380A0A;stroke-width:0.4744;stroke-miterlimit:10;}
	.st47{fill:#380A0A;stroke:#000000;stroke-width:0.4744;stroke-miterlimit:10;}
	.st48{fill:#998F40;}
	.st49{fill:url(#BackgroundHorizontal_3_);}
</style>
<g id="CtmLogoBase">
</g>
<g id="TwitterOld">
</g>
<g id="Twitter">
</g>
<g id="Monies">
	<g id="InLineExtend" class="st6">
		<g id="Lock_11_">
			<g>
				<g>
					<g>
						<path class="st1" d="M79.88,108.34c3.94-15.52,4.11-31.72,6.74-47.47c0.67-3.99,1.33-7.28,2.41-11.16
							c0.49-1.76,1.04-3.51,1.67-5.24c0.3-0.84,0.63-1.67,0.97-2.49c0.07-0.17,0.54-1.24,0.27-0.64c0.23-0.51,0.46-1.01,0.7-1.5
							c0.34-0.7,0.7-1.39,1.08-2.08c0.22-0.4,0.46-0.81,0.69-1.2c0.11-0.19,0.91-1.43,0.4-0.66c0.46-0.69,0.94-1.38,1.44-2.04
							c0.23-0.3,0.46-0.59,0.7-0.89c0.14-0.17,0.29-0.34,0.43-0.52c0.44-0.55-0.54,0.58,0.07-0.07c0.54-0.57,1.08-1.14,1.65-1.68
							c0.16-0.15,0.33-0.3,0.49-0.46c0.57-0.55-0.63,0.51-0.01,0.01c0.35-0.28,0.69-0.58,1.05-0.85c0.3-0.23,0.6-0.46,0.91-0.68
							c0.19-0.13,0.38-0.26,0.56-0.39c0.64-0.46-0.61,0.36,0.07-0.05c0.73-0.44,1.46-0.88,2.22-1.27c0.42-0.22,0.85-0.42,1.28-0.62
							c-0.59,0.27,0.52-0.22,0.65-0.27c0.93-0.37,1.87-0.7,2.83-0.98c1.93-0.58,3.36-0.86,5.41-1.13c4.15-0.54,8.43-0.56,12.58,0.07
							c7.07,1.07,13.56,4.03,18.83,8.86c10.62,9.72,15.25,24.42,18.11,38.1c2.71,12.95,3.49,26.13,5.39,39.19
							c0.16,1.1,0.34,2.2,0.54,3.29c0.28,1.48,2.57,0.26,3.18-0.2c1.09-0.82,2.41-2.33,2.13-3.82c-1.02-5.48-1.5-11.05-2.11-16.58
							c-0.8-7.19-1.67-14.37-2.96-21.49c-2.61-14.34-6.83-29.72-16.88-40.76c-4.87-5.35-11.19-9.27-18.21-11.09
							c-8.19-2.12-17.48-1.92-25.51,0.81c-7.44,2.53-13.84,7.59-18.23,14.09c-4.42,6.54-7.03,14.04-8.74,21.71
							c-3.61,16.13-3.77,32.77-6.88,48.98c-0.35,1.82-0.59,2.95-1.09,4.9c-0.33,1.3,0.34,2.15,1.71,1.71
							C77.85,111.32,79.5,109.8,79.88,108.34L79.88,108.34z"/>
					</g>
				</g>
				<g>
					<g>
						<path class="st1" d="M110.51,97.82c0-10.09,0.14-20.22,1.3-30.25c0.54-4.67,1.28-9.36,2.67-13.86
							c0.28-0.89,0.58-1.78,0.92-2.65c0.09-0.23,0.18-0.45,0.27-0.68c0.02-0.04,0.33-0.77,0.11-0.27c0.22-0.49,0.45-0.97,0.7-1.44
							c0.2-0.39,0.43-0.76,0.65-1.14c0.07-0.13,0.49-0.71,0.05-0.08c0.12-0.17,0.23-0.34,0.35-0.5c0.2-0.27,0.41-0.52,0.61-0.78
							c-0.6,0.78,0.31-0.28,0.51-0.49c0.46-0.48-0.6,0.42-0.06,0.06c0.14-0.1,0.3-0.21,0.43-0.33c0.47-0.4-0.58,0.3-0.03,0.02
							c0.15-0.08,0.31-0.17,0.46-0.26c0.13-0.08,0.68-0.29,0.02-0.03c0.16-0.06,0.32-0.13,0.49-0.19c0.17-0.06,0.33-0.1,0.5-0.15
							c0.55-0.16-0.44,0.06,0.13-0.03c1.57-0.26,2.65-0.16,4.19,0.38c2.78,0.97,4.95,3.35,6.59,5.9c2.12,3.3,3.45,7.13,4.52,10.88
							c1.24,4.33,2.08,8.78,2.73,13.23c1.28,8.83,1.81,17.77,1.81,26.69c0,1.36,1.37,1.18,2.26,0.7c1.07-0.57,2.57-2,2.57-3.35
							c0-8.33-0.48-16.68-1.53-24.94c-1.12-8.88-2.73-18.37-7.25-26.23c-1.72-3-3.93-5.72-7.12-7.22c-3.15-1.49-6.91-1.25-9.91,0.48
							c-7.99,4.59-10.36,15.17-11.73,23.54c-1.74,10.6-1.98,21.42-2.03,32.13c-0.01,1.17-0.01,2.34-0.01,3.51
							c0,1.36,1.37,1.18,2.26,0.7C109,100.59,110.51,99.17,110.51,97.82L110.51,97.82z"/>
					</g>
				</g>
			</g>
			<g id="LogoBase_20_">
				<g id="Ring1_122_">
					<g>
						<path class="st1" d="M27.96,199.94c0.02-10.34,1.57-20.55,4.76-30.35c1.59-4.88,3.3-9.01,5.52-13.38
							c1.14-2.26,2.37-4.47,3.69-6.63c0.28-0.47,0.57-0.94,0.86-1.4c0.18-0.28,0.35-0.56,0.53-0.83c0.37-0.59,0.12-0.18,0.04-0.06
							c0.72-1.1,1.46-2.18,2.23-3.25c1.46-2.04,3-4.03,4.61-5.96c0.35-0.42,0.71-0.83,1.06-1.25c0.71-0.83-0.53,0.58,0.21-0.23
							c0.22-0.24,0.44-0.49,0.66-0.73c0.81-0.89,1.63-1.77,2.46-2.63c1.75-1.8,3.57-3.52,5.44-5.2c0.81-0.73-0.6,0.51,0.23-0.21
							c0.17-0.14,0.33-0.28,0.5-0.43c0.5-0.42,1-0.85,1.51-1.26c1.01-0.83,2.05-1.64,3.09-2.43c0.87-0.66,1.76-1.3,2.65-1.93
							c0.54-0.38,1.08-0.75,1.62-1.12c0.23-0.15,0.46-0.3,0.68-0.46c0.14-0.09,0.27-0.18,0.41-0.27c-0.31,0.2-0.29,0.19,0.06-0.04
							c2.13-1.36,4.3-2.65,6.52-3.85c4.52-2.44,8.39-4.17,13.19-5.88c19.32-6.88,40.73-7.44,60.45-1.66
							c19.06,5.58,36.11,16.95,48.71,32.29c12.68,15.44,20.56,34.76,22.09,54.7c0.79,10.33,0.02,20.92-2.44,30.93
							c-2.42,9.86-6.03,18.55-11.23,27.13c-0.31,0.52-0.63,1.03-0.95,1.54c-0.15,0.23-0.29,0.46-0.44,0.69
							c-0.58,0.91,0.38-0.57-0.22,0.33c-0.73,1.09-1.47,2.18-2.24,3.24c-1.41,1.95-2.88,3.85-4.42,5.7c-0.42,0.5-0.85,1-1.27,1.5
							c0.49-0.57,0.11-0.13,0.01-0.01c-0.22,0.24-0.44,0.49-0.66,0.73c-0.88,0.97-1.78,1.93-2.69,2.86
							c-1.68,1.72-3.43,3.36-5.22,4.97c-0.81,0.73,0.6-0.51-0.23,0.21c-0.25,0.21-0.5,0.43-0.75,0.64c-0.42,0.35-0.84,0.7-1.26,1.05
							c-1.01,0.83-2.05,1.64-3.09,2.43c-0.96,0.73-1.93,1.43-2.92,2.12c-0.45,0.31-0.9,0.62-1.35,0.93
							c-0.27,0.18-0.55,0.37-0.82,0.55c-0.35,0.23-0.37,0.24-0.06,0.04c-0.18,0.12-0.37,0.24-0.55,0.36
							c-4.17,2.66-8.54,5.03-13.07,7.04c0.41-0.18-0.23,0.1-0.32,0.14c-0.25,0.11-0.51,0.22-0.76,0.33
							c-0.61,0.26-1.23,0.51-1.85,0.76c-1.14,0.45-2.28,0.88-3.43,1.3c-2.42,0.86-4.88,1.63-7.36,2.31
							c-4.83,1.31-9.71,2.21-14.72,2.75c-10.4,1.12-20.93,0.61-31.16-1.57c-19.45-4.15-37.32-14.19-51.03-28.59
							c-13.84-14.53-23.01-33.1-26.11-52.93C28.34,209.97,27.97,204.97,27.96,199.94c0-1.66-1.67-1.45-2.77-0.86
							c-1.31,0.7-3.16,2.45-3.15,4.1c0.04,21.18,6.58,41.89,18.91,59.13c11.86,16.58,28.79,29.36,47.96,36.27
							c20.23,7.29,42.68,7.81,63.3,1.77c20.36-5.96,38.51-18.33,51.98-34.66c13.51-16.39,21.87-36.87,23.48-58.06
							c1.61-21.15-3.46-42.4-14.46-60.52c-10.63-17.52-26.62-31.51-45.33-39.85c-19.37-8.64-41.46-10.87-62.2-6.47
							c-20.77,4.4-39.92,15.2-54.54,30.6c-14.68,15.47-24.59,35.1-27.89,56.2c-0.81,5.15-1.2,10.36-1.21,15.58
							c0,1.66,1.68,1.45,2.77,0.86C26.12,203.34,27.96,201.6,27.96,199.94z"/>
					</g>
				</g>
				<g id="Ring2_73_">
					<g>
						<path class="st1" d="M65.76,200.16c0.02-6.27,0.93-12.5,2.87-18.47c0.92-2.85,2-5.5,3.32-8.11c1.4-2.78,2.87-5.2,4.51-7.49
							c3.46-4.83,7.25-8.71,11.88-12.2c4.54-3.42,9.77-6.25,15.36-8.22c11.81-4.15,24.84-4.42,36.84-0.89
							c11.72,3.44,22.17,10.43,29.93,19.86c7.79,9.48,12.64,21.35,13.59,33.6c0.96,12.42-1.92,24.92-8.33,35.48
							c-0.79,1.31-1.25,2-2.19,3.31c-0.89,1.24-1.83,2.45-2.81,3.63c-0.15,0.18-0.66,0.77-0.57,0.67c0.11-0.13-0.47,0.53-0.59,0.65
							c-0.51,0.56-1.04,1.12-1.57,1.67c-1.07,1.09-2.17,2.15-3.32,3.15c0.38-0.33-0.23,0.19-0.34,0.29
							c-0.29,0.25-0.59,0.49-0.88,0.73c-0.59,0.48-1.2,0.95-1.81,1.41c-0.61,0.46-1.23,0.91-1.86,1.35
							c-0.27,0.19-0.54,0.37-0.81,0.56c-0.47,0.32-0.23,0.16-0.71,0.47c-2.43,1.54-5.15,3.02-7.65,4.14
							c-11.44,5.12-24.53,6.35-36.76,3.72c-11.99-2.57-22.98-8.78-31.42-17.67c-8.47-8.93-14.07-20.3-15.98-32.46
							C65.99,206.3,65.77,203.24,65.76,200.16c0-1.44-1.45-1.26-2.4-0.75c-1.13,0.61-2.74,2.13-2.73,3.56
							c0.04,13.17,4.06,26,11.71,36.73c7.38,10.36,17.97,18.33,29.95,22.6c12.64,4.52,26.66,4.77,39.51,0.96
							c12.82-3.81,24.22-11.68,32.68-21.98c8.41-10.23,13.66-23.01,14.69-36.22c1.03-13.22-2.12-26.46-8.99-37.78
							c-6.6-10.88-16.54-19.54-28.15-24.71c-12.16-5.42-25.97-6.71-38.96-3.92c-12.97,2.78-24.94,9.64-34.06,19.25
							c-9.26,9.76-15.53,22.09-17.62,35.4c-0.5,3.21-0.75,6.44-0.75,9.69c0,1.44,1.45,1.25,2.4,0.75
							C64.17,203.1,65.76,201.59,65.76,200.16z"/>
					</g>
				</g>
				<g id="Ring3_73_">
					<g>
						<path class="st1" d="M89.17,200.27c0.03-7.33,2.24-14.77,6.4-20.54c1.17-1.62,1.98-2.59,3.25-3.88
							c1.4-1.42,2.22-2.14,3.82-3.33c2.68-2,5.87-3.7,9.22-4.85c14.56-4.99,30.99,0.05,40.65,11.91
							c9.56,11.73,11.09,28.82,3.24,41.84c-1.72,2.86-3.95,5.47-6.4,7.61c-2.43,2.12-5.36,4.01-8.57,5.42
							c-6.99,3.05-14.94,3.73-22.37,2.07c-14.78-3.3-26.34-15.57-28.78-30.52C89.32,204.1,89.18,202.19,89.17,200.27
							c-0.01-1.33-1.34-1.16-2.21-0.69c-1.04,0.56-2.53,1.96-2.52,3.28c0.07,16.56,10.53,31.66,26.26,37.12
							c16.45,5.71,34.56-0.5,45.42-13.72c10.81-13.15,12.55-32.05,3.65-46.66c-4.11-6.75-10.31-12.09-17.53-15.3
							c-7.73-3.43-16.45-4.12-24.68-2.31c-16.59,3.66-29.9,17.96-32.62,34.67c-0.33,2.05-0.49,4.12-0.5,6.2
							c-0.01,1.33,1.34,1.16,2.21,0.69C87.7,202.98,89.16,201.59,89.17,200.27z"/>
					</g>
				</g>
				<g id="Ring4_73_">
					<circle class="st1" cx="125" cy="201.56" r="14.65"/>
				</g>
			</g>
		</g>
	</g>
</g>
<g id="Texts">
</g>
<g id="LandingPageAndArtOld">
	<g id="LandingV2Sim">
	</g>
	<g id="LandingPageOld_1_">
	</g>
</g>
<g id="CtmSiteLandingPoster">
</g>
<g id="P3">
</g>
<g id="LandingArtOld">
</g>
<g id="LogoBaseRobiconFull">
</g>
<g id="LogobaseRobicon">
</g>
<g id="Safe">
</g>
</svg>
