<?xml version="1.0" encoding="utf-8"?>
<!-- Generator: Adobe Adobe Illustrator 24.2.0, SVG Export Plug-In . SVG Version: 6.00 Build 0)  -->
<svg version="1.1" xmlns="http://www.w3.org/2000/svg" xmlns:xlink="http://www.w3.org/1999/xlink" x="0px" y="0px"
	 viewBox="0 0 250 320" style="enable-background:new 0 0 250 320;" xml:space="preserve">
<style type="text/css">
	.st0{fill:#2C0078;}
	.st1{fill:#EDA514;}
	.st2{fill:#2C0078;stroke:#380A0A;stroke-width:0.8291;stroke-miterlimit:10;}
	.st3{fill:url(#SVGID_1_);}
	.st4{fill:url(#SVGID_2_);}
	.st5{fill:#370003;}
	.st6{fill:none;}
	.st7{opacity:0.8902;}
	.st8{opacity:0.9412;}
	.st9{fill:none;stroke:#370003;stroke-width:0.4087;stroke-miterlimit:10;}
	.st10{fill:none;stroke:#370003;stroke-width:0.3001;stroke-miterlimit:10;}
	.st11{fill:none;stroke:#A6720A;stroke-linejoin:round;stroke-miterlimit:10;}
	.st12{fill:none;stroke:#A6720A;stroke-miterlimit:10;}
	.st13{fill:url(#SVGID_3_);stroke:#000000;stroke-miterlimit:10;}
	.st14{fill:url(#SVGID_4_);stroke:#000000;stroke-miterlimit:10;}
	.st15{fill:url(#SVGID_5_);stroke:#000000;stroke-miterlimit:10;}
	.st16{fill:url(#SVGID_6_);stroke:#000000;stroke-miterlimit:10;}
	.st17{fill:url(#SVGID_7_);}
	.st18{fill:url(#SVGID_8_);}
	.st19{opacity:0.8392;}
	.st20{display:none;}
	.st21{display:inline;}
	.st22{fill:#B37B50;}
	.st23{fill:#380A0A;}
	.st24{fill:#A6720A;}
	.st25{fill:none;stroke:#380A0A;stroke-width:0.5304;stroke-miterlimit:10;}
	.st26{fill:#380A0A;stroke:#000000;stroke-width:0.5304;stroke-miterlimit:10;}
	.st27{fill:#B37B50;stroke:#380A0A;stroke-width:1.3576;stroke-miterlimit:10;}
	.st28{fill:#A6720A;stroke:#380A0A;stroke-width:2;stroke-linejoin:round;stroke-miterlimit:10;}
	.st29{fill:#A6720A;stroke:#380A0A;stroke-width:1.8889;stroke-linejoin:round;stroke-miterlimit:10;}
	.st30{fill:#A6720A;stroke:#380A0A;stroke-width:1.7778;stroke-linejoin:round;stroke-miterlimit:10;}
	.st31{fill:#A6720A;stroke:#380A0A;stroke-width:1.6667;stroke-linejoin:round;stroke-miterlimit:10;}
	.st32{fill:#A6720A;stroke:#380A0A;stroke-width:1.5556;stroke-linejoin:round;stroke-miterlimit:10;}
	.st33{fill:#A6720A;stroke:#380A0A;stroke-width:1.4444;stroke-linejoin:round;stroke-miterlimit:10;}
	.st34{fill:#A6720A;stroke:#380A0A;stroke-width:1.3333;stroke-linejoin:round;stroke-miterlimit:10;}
	.st35{fill:#A6720A;stroke:#380A0A;stroke-width:1.1111;stroke-linejoin:round;stroke-miterlimit:10;}
	.st36{fill:#A6720A;stroke:#380A0A;stroke-linejoin:round;stroke-miterlimit:10;}
	.st37{fill:#A6720A;stroke:#380A0A;stroke-width:0.7778;stroke-linejoin:round;stroke-miterlimit:10;}
	.st38{fill:#A6720A;stroke:#380A0A;stroke-width:0.3333;stroke-linejoin:round;stroke-miterlimit:10;}
	.st39{fill:#2C0078;stroke:#A6720A;stroke-width:2.2221;stroke-miterlimit:10;}
	.st40{opacity:0;fill:none;stroke:#EDA514;stroke-width:3;stroke-miterlimit:10;}
	.st41{fill:url(#BackgroundHorizontal_2_);}
	.st42{fill:none;stroke:#A6720A;stroke-width:2.0268;stroke-miterlimit:10;}
	.st43{opacity:0;fill:none;stroke:#EDA514;stroke-width:2.7363;stroke-miterlimit:10;}
	.st44{fill:none;stroke:#370003;stroke-width:0.5304;stroke-miterlimit:10;}
	.st45{fill:#8F853F;}
	.st46{fill:#852705;}
	.st47{fill:none;stroke:#370003;stroke-width:2.0268;stroke-miterlimit:10;}
	.st48{fill:#F9AF17;}
	.st49{fill:none;stroke:#852C08;stroke-miterlimit:10;}
	.st50{fill:#852D09;}
	.st51{fill:#B35095;}
	.st52{fill:none;stroke:#380A0A;stroke-width:0.4744;stroke-miterlimit:10;}
	.st53{fill:#380A0A;stroke:#000000;stroke-width:0.4744;stroke-miterlimit:10;}
	.st54{fill:#998F40;}
	.st55{fill:url(#BackgroundHorizontal_3_);}
</style>
<g id="CtmLogoBase">
</g>
<g id="TwitterOld">
</g>
<g id="Twitter">
</g>
<g id="General">
</g>
<g id="Monies">
	<g id="InLineExtend" class="st7">
		<g id="Token_22_">
			<g>
				<g>
					<g id="Token_39_">
						<g id="Ring1_161_">
							<g>
								<path class="st1" d="M224.74,226.85c-0.1,5.41-0.53,10.84-0.8,16.25c-0.1,1.88-0.19,3.68-0.83,5.48
									c-0.86,2.4-2.39,4.51-4.15,6.32c-5.07,5.22-11.94,8.63-18.61,11.32c-9.47,3.83-19.46,6.34-29.5,8.15
									c-24.67,4.44-50.31,4.94-75.19,2.01c-10.97-1.29-21.9-3.3-32.49-6.47c-8.16-2.44-16.36-5.54-23.51-10.26
									c-4.72-3.12-9.6-7.31-11.27-12.93c-0.61-2.05-0.61-4.1-0.77-6.25c-0.25-3.37-0.5-6.75-0.73-10.13
									c-0.05-0.76-0.13-1.53-0.14-2.29c-0.02-1.22-2.14,0.31-2.12,1.16c0.04,2.51,0.33,5.04,0.51,7.55
									c0.22,3.03,0.4,6.07,0.68,9.09c0.48,5.23,4.2,9.63,8.08,12.85c6.25,5.19,13.95,8.6,21.55,11.29
									c10.2,3.61,20.85,5.93,31.54,7.52c25.41,3.79,51.7,3.78,77.09-0.1c10.59-1.62,21.15-3.94,31.25-7.54
									c7.63-2.72,15.34-6.16,21.63-11.36c4.32-3.57,8.39-8.36,8.95-14.16c0.53-5.52,0.58-11.13,0.84-16.67
									c0.03-0.67,0.08-1.34,0.09-2.01C226.88,224.48,224.75,225.99,224.74,226.85L224.74,226.85z"/>
							</g>
						</g>
					</g>
					<g id="Token_23_">
						<g id="Ring1_158_">
							<g>
								<path class="st1" d="M223.87,233.59c-0.06,6.04-0.34,12.09-0.52,18.13c-0.08,2.79-0.16,5.58-0.25,8.38
									c-0.07,2.27-0.68,4.12-1.69,5.91c-0.46,0.82-0.42,0.75-1.03,1.57c-0.23,0.32-0.48,0.62-0.73,0.93
									c-0.08,0.1-0.17,0.21-0.26,0.31c0.35-0.42-0.21,0.23-0.28,0.3c-1.4,1.51-2.24,2.24-3.79,3.43
									c-3.25,2.5-6.84,4.48-10.63,6.26c-10.17,4.76-21.27,7.64-32.27,9.69c-13.79,2.56-27.83,3.76-41.85,3.95
									c-14.4,0.19-28.84-0.68-43.08-2.91c-11.6-1.82-23.2-4.49-34.13-8.86c-7.56-3.02-15.55-6.97-20.86-13.35
									c-1.83-2.2-3.25-4.74-3.76-7.57c-0.04-0.24-0.1-0.86-0.06-0.23c-0.01-0.1-0.01-0.2-0.02-0.3c-0.01-0.42-0.03-0.84-0.05-1.26
									c-0.05-1.36-0.09-2.72-0.14-4.08c-0.24-7.2-0.45-14.41-0.66-21.61c-0.02-0.59-0.04-1.18-0.05-1.77
									c-0.01-2.06-3.61,0.52-3.6,1.97c0.04,6.19,0.36,12.39,0.55,18.58c0.1,3.15,0.19,6.31,0.31,9.46c0.09,2.3,0.7,4.45,1.81,6.48
									c3.69,6.76,10.81,11.13,17.51,14.43c10.22,5.03,21.4,8.07,32.53,10.26c14.09,2.77,28.46,4.08,42.81,4.34
									c14.69,0.27,29.43-0.56,43.96-2.78c12-1.83,24.02-4.54,35.32-9.05c8.02-3.2,16.31-7.37,22.14-13.92
									c2.26-2.54,4.24-5.5,5.08-8.84c0.52-2.05,0.51-4.08,0.57-6.18c0.22-7.29,0.43-14.59,0.63-21.88
									c0.02-0.58,0.04-1.16,0.05-1.75C227.49,229.56,223.89,232.13,223.87,233.59L223.87,233.59z"/>
							</g>
						</g>
					</g>
					<g>
						<g>
							<path class="st1" d="M59.86,200.3c-11.11,3.38-23.53,8.07-31.04,17.43c-2.57,3.21-4.4,7.15-4.52,11.3
								c-0.09,3.1,0.83,6.02,2.39,8.67c4.07,6.92,11.52,11.52,18.51,15.04c10.44,5.26,21.85,8.59,33.27,10.96
								c14.25,2.96,28.82,4.35,43.36,4.53c14.87,0.18,29.79-0.92,44.43-3.58c12.1-2.19,24.1-5.39,35.35-10.41
								c8.02-3.59,16.21-8.3,21.72-15.32c4.34-5.54,6.07-12.6,2.64-19.08c-2.05-3.87-5.28-6.91-8.84-9.38
								c-4.88-3.38-10.36-5.86-15.91-7.89c-3.34-1.23-6.75-2.28-10.18-3.24c-1.48-0.41-4.28,3.1-2.68,3.54
								c6.42,1.78,12.78,3.92,18.76,6.87c4.33,2.13,8.54,4.74,11.91,8.23c2.54,2.64,4.5,5.82,5.08,9.48
								c0.23,1.44,0.2,2.91-0.06,4.34c-0.07,0.4-0.23,0.99-0.42,1.57c-0.3,0.89-0.43,1.19-0.77,1.84c-1.35,2.64-3.37,4.87-5.56,6.73
								c-3.18,2.7-6.58,4.82-10.27,6.76c-9.68,5.09-20.32,8.34-30.95,10.75c-13.38,3.03-27.12,4.58-40.82,5.04
								c-14.57,0.49-29.21-0.26-43.63-2.47c-11.9-1.82-23.76-4.59-34.99-8.97c-8.08-3.15-16.34-7.17-22.56-13.36
								c-4.3-4.28-7.46-10.03-5.6-16.17c1.09-3.59,3.4-6.24,6.26-8.54c4.22-3.4,9.17-5.85,14.17-7.86c3.22-1.3,6.51-2.41,9.84-3.42
								c0.97-0.3,2-1.3,2.28-2.28C61.25,200.55,60.77,200.02,59.86,200.3L59.86,200.3z"/>
						</g>
					</g>
					<g>
						<g>
							<path class="st1" d="M69.41,218.34c-2.23,1.48-4.65,3.17-5.74,5.72c-0.78,1.81-0.87,4.05-0.54,5.98
								c0.61,3.52,3.26,6.36,6,8.44c4,3.05,8.75,5.12,13.48,6.75c6.36,2.19,12.97,3.61,19.62,4.57c15.46,2.24,31.44,2.22,46.88-0.13
								c6.54-1,13.07-2.43,19.32-4.64c4.78-1.68,9.56-3.81,13.58-6.93c2.89-2.24,5.64-5.2,6.47-8.86c1.2-5.29-2.52-9.71-6.56-12.6
								c-1.51-1.08-3.12-2.01-4.76-2.87c-0.77-0.4-2.57,1.62-1.61,2.12c4.68,2.45,11.13,6.63,11.01,12.67
								c-0.06,3-1.89,5.46-4.07,7.36c-3.44,2.99-7.76,4.97-11.99,6.56c-5.62,2.11-11.48,3.54-17.39,4.57
								c-14.46,2.53-29.44,2.87-44.02,1.29c-11.56-1.25-23.81-3.54-34.09-9.24c-3.47-1.92-7.23-4.56-8.97-8.26
								c-0.8-1.7-0.98-3.45-0.82-5.31c0.25-2.88,2.36-4.24,4.62-5.73C70.92,219.06,70.94,217.32,69.41,218.34L69.41,218.34z"/>
						</g>
					</g>
					<g>
						<g>
							<path class="st1" d="M90.18,219.67c-2.82,1.88-4.8,4.14-4.31,7.71c0.3,2.17,1.82,3.97,3.47,5.31
								c5.57,4.52,13.44,6.25,20.35,7.33c9.72,1.52,19.78,1.59,29.53,0.23c7.3-1.02,15.2-2.74,21.36-7.01
								c2.2-1.52,4.41-3.66,5.12-6.33c1.08-4.07-2.15-7.21-5.31-9.2c-0.86-0.54-2.65,1.49-1.94,1.94c2.57,1.61,5.85,4.25,5.24,7.7
								c-0.32,1.8-1.72,3.14-3.13,4.17c-5.27,3.86-12.41,5.38-18.73,6.37c-8.83,1.38-17.93,1.53-26.8,0.52
								c-7-0.8-14.34-2.22-20.61-5.59c-2.2-1.18-4.58-2.79-5.78-5.06c-0.48-0.91-0.69-1.87-0.66-2.9c0.02-0.65,0.04-1.38,0.4-1.95
								c0.49-0.76,1.49-1.3,2.22-1.78C91.68,220.4,91.71,218.65,90.18,219.67L90.18,219.67z"/>
						</g>
					</g>
				</g>
			</g>
			<g>
				<g>
					<path class="st1" d="M140.51,58.08c-5.89-1.06-10.29-5.04-9.03-11.99c1.25-6.95,6.75-9.12,12.65-8.05
						c2.59,0.47,5.27,1.64,6.86,3.85c0.34,0.52,0.52,1.07,0.4,1.74c-0.22,1.22-1.32,1.91-2.49,1.7c-1.06-0.19-1.82-1.19-2.56-1.7
						c-0.84-0.58-1.76-0.92-2.98-1.14c-3.17-0.57-5.93,0.91-6.59,4.55c-0.66,3.64,1.41,6.02,4.58,6.6c1.56,0.28,3.19,0.29,4.73-0.27
						c0.49-0.17,0.96-0.2,1.34-0.13c1.31,0.24,2.09,1.61,1.88,2.78c-0.11,0.58-0.46,1.12-1.12,1.43
						C145.69,58.67,143.1,58.55,140.51,58.08z"/>
					<path class="st1" d="M172.64,54.15c-1.61-0.9-2.85-1.44-3.93-2.01c-1.38-0.74-1.55-2.09-0.88-3.07
						c0.75-1.1,1.71-1.29,2.87-0.74c2.4,1.1,4.25,2.05,6.46,3.57c2.12,1.45,3.69,2.81,5.57,4.67c0.94,0.88,1.1,1.85,0.35,2.94
						c-0.67,0.98-1.99,1.31-3.18,0.29c-0.92-0.8-1.87-1.76-3.29-2.94l-7.53,10.98c-0.77,1.12-2.28,1.18-3.26,0.51
						s-1.47-2.1-0.7-3.22L172.64,54.15z"/>
					<path class="st1" d="M201.2,92.45c1.76-0.96,2.29-2.28,1.49-3.75c-0.8-1.46-2.2-1.73-3.96-0.77l-8.8,4.81
						c-1.19,0.65-2.4,0.32-3.16-1.07c-0.72-1.31-0.36-2.54,0.83-3.19l8.8-4.81c1.76-0.96,2.29-2.28,1.49-3.75
						c-0.8-1.46-2.2-1.73-3.96-0.77l-8.8,4.81c-1.19,0.65-2.38,0.37-3.14-1.02c-0.76-1.39-0.39-2.59,0.8-3.24l8.8-4.81
						c5.18-2.83,8.08-1.13,10.26,2.86c0.98,1.79,1.23,3.61,0.29,5.54c2.13,0.25,3.53,1.45,4.51,3.24c2.26,4.14,1.58,7.6-3.13,10.18
						l-8.8,4.81c-1.19,0.65-2.4,0.32-3.16-1.07c-0.76-1.39-0.36-2.54,0.83-3.19L201.2,92.45z"/>
				</g>
				<g>
					<path class="st1" d="M108.22,193.7c5.85,1.31,10.07,5.48,8.52,12.37c-1.55,6.89-7.14,8.82-12.98,7.51
						c-2.56-0.58-5.2-1.86-6.69-4.14c-0.31-0.53-0.48-1.09-0.33-1.75c0.27-1.21,1.4-1.86,2.56-1.6c1.05,0.24,1.77,1.27,2.49,1.81
						c0.82,0.62,1.72,0.99,2.93,1.27c3.14,0.71,5.97-0.66,6.78-4.27s-1.15-6.08-4.3-6.79c-1.54-0.35-3.18-0.42-4.74,0.07
						c-0.5,0.15-0.96,0.16-1.35,0.07c-1.3-0.29-2.02-1.7-1.76-2.86c0.13-0.58,0.51-1.1,1.18-1.39
						C103.07,192.89,105.66,193.12,108.22,193.7z"/>
					<path class="st1" d="M75.99,196.52c1.58,0.95,2.81,1.53,3.87,2.13c1.35,0.78,1.48,2.14,0.78,3.09
						c-0.78,1.07-1.75,1.24-2.89,0.65c-2.37-1.17-4.18-2.18-6.35-3.77c-2.08-1.52-3.61-2.92-5.42-4.84
						c-0.91-0.91-1.04-1.88-0.26-2.95c0.7-0.96,2.03-1.25,3.19-0.19c0.9,0.83,1.82,1.82,3.2,3.04l7.85-10.74
						c0.8-1.09,2.32-1.11,3.27-0.41s1.41,2.15,0.6,3.24L75.99,196.52z"/>
					<path class="st1" d="M48.67,157.3c-1.79,0.9-2.37,2.2-1.63,3.69c0.75,1.49,2.14,1.81,3.93,0.91l8.97-4.49
						c1.21-0.61,2.41-0.23,3.12,1.19c0.67,1.34,0.27,2.55-0.95,3.16l-8.97,4.49c-1.79,0.9-2.37,2.2-1.63,3.69
						c0.75,1.49,2.14,1.81,3.93,0.91l8.97-4.49c1.21-0.61,2.39-0.28,3.1,1.14c0.71,1.42,0.29,2.6-0.92,3.21l-8.97,4.49
						c-5.28,2.64-8.11,0.84-10.15-3.23c-0.91-1.82-1.1-3.65-0.09-5.55c-2.12-0.33-3.48-1.58-4.39-3.4
						c-2.11-4.22-1.31-7.66,3.5-10.06l8.97-4.49c1.21-0.61,2.41-0.23,3.12,1.19c0.71,1.42,0.27,2.55-0.95,3.16L48.67,157.3z"/>
				</g>
				<g id="LogoBase_25_">
					<g id="Ring1_97_">
						<g>
							<path class="st1" d="M26.25,124.48c0.03-20.13,6.22-40.14,17.84-56.4c5.7-7.97,12.33-14.79,20.09-20.65
								c7.67-5.8,16.29-10.47,25.48-13.74c19.44-6.93,40.94-7.48,60.73-1.68c19.09,5.59,36.19,16.98,48.81,32.35
								c12.74,15.51,20.64,34.9,22.16,54.94c1.55,20.37-3.17,40.9-13.78,58.38c-5,8.24-11.08,15.44-18.36,21.89
								c-1.43,1.27-3.66,3.08-5.5,4.47c-1.9,1.43-4.01,2.92-5.87,4.11c-4.17,2.66-8.54,5.04-13.07,7.04
								c-18.75,8.27-40.03,10.36-60.06,6.09c-19.48-4.15-37.4-14.23-51.14-28.65c-13.86-14.55-23.06-33.17-26.17-53.03
								C26.64,134.6,26.26,129.55,26.25,124.48c0-1.29-1.3-1.13-2.15-0.67c-1.02,0.55-2.45,1.9-2.45,3.18
								c0.04,21.08,6.57,41.74,18.84,58.9c11.84,16.55,28.72,29.31,47.86,36.21c20.14,7.26,42.49,7.8,63.02,1.79
								c20.08-5.88,38.03-18.04,51.32-34.16c13.4-16.25,21.66-36.55,23.26-57.56c1.6-21.06-3.44-42.24-14.39-60.29
								c-10.61-17.48-26.56-31.46-45.23-39.79c-19.34-8.62-41.37-10.85-62.07-6.46C83.75,30,64.83,40.67,50.39,55.88
								c-14.5,15.28-24.26,34.71-27.52,55.54c-0.81,5.15-1.2,10.36-1.21,15.58c0,1.29,1.3,1.12,2.15,0.67
								C24.83,127.12,26.25,125.77,26.25,124.48z"/>
						</g>
					</g>
					<g id="Ring2_58_">
						<g>
							<path class="st1" d="M64.45,124.48c0.03-12.23,3.74-24.44,10.78-34.27c3.44-4.8,7.36-8.82,12.01-12.33
								c4.64-3.49,9.9-6.33,15.5-8.29c11.85-4.16,24.91-4.44,36.96-0.9c11.73,3.45,22.21,10.45,29.97,19.89
								c7.82,9.51,12.67,21.41,13.62,33.7c0.96,12.42-1.91,24.95-8.37,35.61c-3.03,5-6.66,9.3-11.15,13.22
								c0.23-0.2-0.33,0.28-0.41,0.35c-0.29,0.25-0.59,0.49-0.88,0.73c-0.59,0.48-1.2,0.95-1.81,1.41c-1.13,0.85-2.4,1.74-3.45,2.42
								c-2.47,1.57-5.05,2.98-7.72,4.17c-11.47,5.13-24.61,6.36-36.87,3.73c-12.01-2.58-23.01-8.79-31.46-17.7
								c-8.48-8.94-14.09-20.32-16.01-32.5C64.68,130.66,64.46,127.58,64.45,124.48c0-1.29-1.3-1.13-2.15-0.67
								c-1.01,0.55-2.45,1.9-2.45,3.18c0.04,13.13,4.05,25.93,11.68,36.64c7.37,10.34,17.95,18.31,29.91,22.58
								c12.6,4.5,26.58,4.77,39.4,0.97c12.71-3.77,24.02-11.56,32.42-21.78c8.36-10.17,13.57-22.89,14.6-36.03
								c1.03-13.18-2.12-26.4-8.96-37.69c-6.59-10.87-16.51-19.52-28.11-24.69c-12.13-5.4-25.91-6.7-38.88-3.92
								c-12.88,2.76-24.77,9.56-33.83,19.11c-9.18,9.68-15.4,21.93-17.47,35.13c-0.5,3.21-0.75,6.44-0.75,9.69
								c0,1.29,1.3,1.12,2.15,0.67C63.02,127.12,64.44,125.77,64.45,124.48z"/>
						</g>
					</g>
					<g id="Ring3_58_">
						<g>
							<path class="st1" d="M88.05,124.48c0.03-7.35,2.22-14.75,6.42-20.59c2.08-2.88,4.31-5.16,7.1-7.24
								c2.72-2.03,5.91-3.72,9.26-4.87c14.57-4.99,31.02,0.04,40.69,11.91c9.57,11.75,11.1,28.86,3.23,41.9
								c-1.75,2.89-3.96,5.5-6.44,7.65c-2.45,2.14-5.42,4.05-8.62,5.44c-7,3.05-14.96,3.73-22.4,2.07
								c-14.79-3.3-26.36-15.58-28.79-30.54C88.21,128.32,88.06,126.41,88.05,124.48c-0.01-1.29-1.3-1.13-2.15-0.67
								c-1.01,0.54-2.45,1.9-2.45,3.18c0.07,16.54,10.52,31.63,26.24,37.09c16.4,5.7,34.48-0.48,45.32-13.67
								c10.79-13.12,12.52-32,3.64-46.58c-4.11-6.75-10.3-12.09-17.52-15.29c-7.72-3.43-16.43-4.12-24.65-2.31
								c-16.54,3.64-29.81,17.9-32.53,34.56c-0.33,2.05-0.49,4.12-0.5,6.2c-0.01,1.29,1.3,1.12,2.15,0.67
								C86.63,127.12,88.05,125.77,88.05,124.48z"/>
						</g>
					</g>
					<g id="Ring4_59_">
						<circle class="st1" cx="123.96" cy="125.74" r="14.65"/>
					</g>
				</g>
			</g>
		</g>
	</g>
</g>
<g id="Texts">
</g>
<g id="LandingPageAndArtOld">
	<g id="LandingV2Sim">
	</g>
	<g id="LandingPageOld_1_">
	</g>
</g>
<g id="CtmSiteLandingPoster">
</g>
<g id="P3">
</g>
<g id="LandingArtOld">
</g>
<g id="LogoBaseRobiconFull">
</g>
<g id="LogobaseRobicon">
</g>
<g id="Safe">
</g>
</svg>
