<?xml version="1.0" encoding="utf-8"?>
<!-- Generator: Adobe Adobe Illustrator 24.2.0, SVG Export Plug-In . SVG Version: 6.00 Build 0)  -->
<svg version="1.1" xmlns="http://www.w3.org/2000/svg" xmlns:xlink="http://www.w3.org/1999/xlink" x="0px" y="0px"
	 viewBox="0 0 250 320" style="enable-background:new 0 0 250 320;" xml:space="preserve">
<style type="text/css">
	.st0{fill:#2C0078;}
	.st1{fill:#EDA514;}
	.st2{fill:#2C0078;stroke:#380A0A;stroke-width:0.8291;stroke-miterlimit:10;}
	.st3{fill:url(#SVGID_1_);}
	.st4{fill:url(#SVGID_2_);}
	.st5{fill:#370003;}
	.st6{opacity:0.8902;}
	.st7{fill:none;stroke:#370003;stroke-width:0.4087;stroke-miterlimit:10;}
	.st8{fill:none;stroke:#370003;stroke-width:0.3001;stroke-miterlimit:10;}
	.st9{fill:none;stroke:#A6720A;stroke-linejoin:round;stroke-miterlimit:10;}
	.st10{fill:none;stroke:#A6720A;stroke-miterlimit:10;}
	.st11{fill:url(#SVGID_3_);stroke:#000000;stroke-miterlimit:10;}
	.st12{fill:url(#SVGID_4_);stroke:#000000;stroke-miterlimit:10;}
	.st13{fill:url(#SVGID_5_);stroke:#000000;stroke-miterlimit:10;}
	.st14{fill:url(#SVGID_6_);stroke:#000000;stroke-miterlimit:10;}
	.st15{fill:url(#SVGID_7_);}
	.st16{fill:url(#SVGID_8_);}
	.st17{display:none;}
	.st18{display:inline;}
	.st19{fill:#292E6E;}
	.st20{fill:#FFFFFF;}
	.st21{fill:none;stroke:#FFFFFF;stroke-width:2;stroke-miterlimit:10;}
	.st22{fill:none;stroke:#FFFFFF;stroke-width:3.7156;stroke-miterlimit:10;}
	.st23{fill:#C9C9C9;}
	.st24{opacity:0.502;fill:none;stroke:#FFFFFF;stroke-width:2;stroke-miterlimit:10;}
	.st25{fill:none;stroke:#FFFFFF;stroke-width:4;stroke-miterlimit:10;}
	.st26{fill:none;stroke:#FFFFFF;stroke-width:2.4957;stroke-miterlimit:10;}
	.st27{fill:none;stroke:#FFFFFF;stroke-width:3.5467;stroke-miterlimit:10;}
	.st28{opacity:0.8392;}
	.st29{fill:none;stroke:#370003;stroke-width:1.3433;stroke-miterlimit:10;}
	.st30{fill:none;stroke:#370003;stroke-width:0.6678;stroke-miterlimit:10;}
	.st31{fill:none;stroke:#370003;stroke-width:0.7451;stroke-miterlimit:10;}
	.st32{fill:none;stroke:#EDA514;stroke-miterlimit:10;}
	.st33{fill:none;stroke:#EDA514;stroke-width:0.618;stroke-miterlimit:10;}
	.st34{fill:none;stroke:#EDA514;stroke-width:0.382;stroke-miterlimit:10;}
	.st35{fill:none;stroke:#EDA514;stroke-width:0.2361;stroke-miterlimit:10;}
	.st36{display:none;fill:#2C0078;}
	.st37{fill:#B37B50;}
	.st38{fill:#380A0A;}
	.st39{fill:#A6720A;}
	.st40{fill:none;stroke:#380A0A;stroke-width:0.5304;stroke-miterlimit:10;}
	.st41{fill:#380A0A;stroke:#000000;stroke-width:0.5304;stroke-miterlimit:10;}
	.st42{fill:#B37B50;stroke:#380A0A;stroke-width:1.3576;stroke-miterlimit:10;}
	.st43{fill:#A6720A;stroke:#380A0A;stroke-width:2;stroke-linejoin:round;stroke-miterlimit:10;}
	.st44{fill:#A6720A;stroke:#380A0A;stroke-width:1.8889;stroke-linejoin:round;stroke-miterlimit:10;}
	.st45{fill:#A6720A;stroke:#380A0A;stroke-width:1.7778;stroke-linejoin:round;stroke-miterlimit:10;}
	.st46{fill:#A6720A;stroke:#380A0A;stroke-width:1.6667;stroke-linejoin:round;stroke-miterlimit:10;}
	.st47{fill:#A6720A;stroke:#380A0A;stroke-width:1.5556;stroke-linejoin:round;stroke-miterlimit:10;}
	.st48{fill:#A6720A;stroke:#380A0A;stroke-width:1.4444;stroke-linejoin:round;stroke-miterlimit:10;}
	.st49{fill:#A6720A;stroke:#380A0A;stroke-width:1.3333;stroke-linejoin:round;stroke-miterlimit:10;}
	.st50{fill:#A6720A;stroke:#380A0A;stroke-width:1.1111;stroke-linejoin:round;stroke-miterlimit:10;}
	.st51{fill:#A6720A;stroke:#380A0A;stroke-linejoin:round;stroke-miterlimit:10;}
	.st52{fill:#A6720A;stroke:#380A0A;stroke-width:0.7778;stroke-linejoin:round;stroke-miterlimit:10;}
	.st53{fill:#A6720A;stroke:#380A0A;stroke-width:0.3333;stroke-linejoin:round;stroke-miterlimit:10;}
	.st54{fill:#2C0078;stroke:#A6720A;stroke-width:2.2221;stroke-miterlimit:10;}
	.st55{opacity:0;fill:none;stroke:#EDA514;stroke-width:3;stroke-miterlimit:10;}
	.st56{fill:url(#BackgroundHorizontal_2_);}
	.st57{fill:none;stroke:#A6720A;stroke-width:2.0268;stroke-miterlimit:10;}
	.st58{opacity:0;fill:none;stroke:#EDA514;stroke-width:2.7363;stroke-miterlimit:10;}
	.st59{fill:none;stroke:#370003;stroke-width:0.5304;stroke-miterlimit:10;}
	.st60{fill:#8F853F;}
	.st61{fill:none;stroke:#370003;stroke-width:2.0268;stroke-miterlimit:10;}
	.st62{fill:none;stroke:#852C08;stroke-miterlimit:10;}
	.st63{fill:#852D09;}
	.st64{fill:#B35095;}
	.st65{fill:none;stroke:#380A0A;stroke-width:0.4744;stroke-miterlimit:10;}
	.st66{fill:#380A0A;stroke:#000000;stroke-width:0.4744;stroke-miterlimit:10;}
	.st67{fill:#998F40;}
	.st68{fill:url(#BackgroundHorizontal_3_);}
	.st69{fill:#3453CF;}
</style>
<g id="CtmLogoBase">
</g>
<g id="TwitterOld">
</g>
<g id="Twitter">
</g>
<g id="General">
</g>
<g id="App">
</g>
<g id="Monies">
	<g id="InLineExtendBold" class="st6">
		<g id="Token_48_">
			<g>
				<g>
					<g id="Token_50_">
						<g id="Ring1_247_">
							<g>
								<path class="st1" d="M221.85,238.61c-0.1,5.41-0.53,10.84-0.8,16.25c-0.04,0.7-0.06,1.4-0.11,2.1
									c-0.04,0.52-0.26,1.15-0.23,1.66c-0.05-0.72,0.18-0.74,0.07-0.33c-0.04,0.14-0.07,0.27-0.11,0.41
									c-0.09,0.33-0.2,0.66-0.31,0.98c-0.1,0.27-0.21,0.54-0.32,0.81c-0.26,0.68,0.5-1,0.15-0.35c-0.06,0.1-0.1,0.21-0.16,0.32
									c-0.14,0.27-0.28,0.54-0.43,0.8c-0.24,0.43-1.06,1.43-0.01,0.08c-0.41,0.53-0.77,1.11-1.2,1.63
									c-0.1,0.13-0.21,0.25-0.32,0.38c-0.52,0.66,0.84-0.92,0.41-0.47c-0.28,0.3-0.56,0.61-0.84,0.91
									c-0.52,0.54-1.14,1.01-1.64,1.56c-0.01,0.01,1.09-0.92,0.5-0.44c-0.17,0.14-0.35,0.29-0.52,0.44
									c-0.36,0.29-0.72,0.58-1.09,0.86c-0.64,0.49-1.29,0.96-1.95,1.41c-0.29,0.2-1.61,0.98-0.23,0.16
									c-0.44,0.26-0.87,0.55-1.31,0.82c-1.64,0.99-3.32,1.9-5.03,2.75c-0.92,0.45-1.85,0.86-2.77,1.31
									c-0.57,0.28,0.95-0.41,0.03-0.01c-0.28,0.12-0.56,0.24-0.84,0.36c-0.52,0.22-1.04,0.44-1.57,0.65
									c-4.4,1.78-8.92,3.26-13.49,4.53c-5.37,1.49-10.07,2.53-15.35,3.48c-24.47,4.41-49.94,4.97-74.62,2.05
									c-10.97-1.29-21.9-3.3-32.49-6.47c-4.38-1.31-8.71-2.83-12.9-4.65c-1.95-0.85-3.88-1.76-5.76-2.76
									c-1.71-0.9-2.7-1.48-4.41-2.61c-2.67-1.77-5.22-3.79-7.34-6.2c-0.92-1.04-1.73-2.16-2.45-3.35c0.39,0.65-0.1-0.2-0.18-0.36
									c-0.13-0.26-0.26-0.53-0.38-0.8c-0.26-0.58-0.48-1.18-0.66-1.79c-0.16-0.54-0.29-1.09-0.38-1.65
									c-0.02-0.14-0.04-0.29-0.06-0.43c-0.12-0.69,0.05,0.63,0.02,0.22c-0.09-1.27-0.2-2.54-0.29-3.82
									c-0.25-3.37-0.5-6.75-0.73-10.13c-0.05-0.76-0.13-1.53-0.14-2.29c-0.03-2.18-2.22-1.99-3.69-1.15
									c-1.71,0.98-4.24,3.24-4.2,5.47c0.04,2.51,0.33,5.04,0.51,7.55c0.23,3.22,0.42,6.45,0.73,9.66
									c0.52,5.36,4.35,9.98,8.33,13.29c6.37,5.29,14.24,8.8,21.99,11.54c10.2,3.61,20.85,5.93,31.54,7.52
									c25.59,3.82,52.08,3.86,77.66-0.05c10.81-1.65,21.6-4.01,31.92-7.68c8.15-2.9,16.39-6.62,23.11-12.16
									c5.38-4.44,10.58-10.43,11.27-17.68c0.53-5.52,0.58-11.13,0.84-16.67c0.03-0.67,0.08-1.34,0.09-2.01
									c0.04-2.2-2.27-1.96-3.69-1.15C224.29,234.15,221.89,236.36,221.85,238.61L221.85,238.61z"/>
							</g>
						</g>
					</g>
					<g id="Token_49_">
						<g id="Ring1_245_">
							<g>
								<path class="st1" d="M221.73,244.95c-0.06,6.04-0.34,12.09-0.52,18.13c-0.08,2.79-0.16,5.58-0.25,8.38
									c-0.01,0.19-0.01,0.38-0.02,0.56c-0.02,0.28-0.05,0.56-0.09,0.84c-0.02,0.17-0.05,0.33-0.08,0.5
									c-0.13,0.9,0.19-0.67,0.02-0.08c-0.17,0.61-0.33,1.21-0.56,1.8c-0.06,0.16-0.13,0.32-0.2,0.49c-0.26,0.68,0.49-1,0.15-0.35
									c-0.2,0.37-0.37,0.75-0.58,1.12c-0.23,0.41-1.07,1.45-0.01,0.08c-0.23,0.3-0.43,0.63-0.66,0.94
									c-0.23,0.32-0.48,0.62-0.73,0.93c-0.08,0.1-0.18,0.2-0.26,0.31c1.03-1.43,0.53-0.59,0.2-0.24c-0.58,0.63-1.19,1.21-1.81,1.8
									c-0.3,0.29-0.98,0.72,0.34-0.29c-0.18,0.14-0.34,0.29-0.51,0.44c-0.41,0.35-0.83,0.68-1.26,1.01
									c-0.7,0.54-1.42,1.06-2.15,1.55c-0.21,0.14-0.42,0.27-0.62,0.42c1.2-0.85,0.45-0.29,0.17-0.12
									c-0.51,0.32-1.03,0.64-1.56,0.95c-1.92,1.13-3.9,2.15-5.92,3.1c-0.28,0.13-1.99,0.89-0.9,0.42
									c-0.56,0.24-1.12,0.48-1.68,0.72c-1.26,0.53-2.53,1.02-3.81,1.5c-2.51,0.94-5.06,1.78-7.63,2.56
									c-5.87,1.77-11.54,3.09-17.22,4.15c-13.79,2.56-27.83,3.76-41.85,3.95c-14.26,0.19-28.56-0.66-42.65-2.87
									c-11.6-1.82-23.2-4.49-34.13-8.86c-7.64-3.06-15.13-6.67-20.53-13.16c-0.46-0.55-0.89-1.12-1.29-1.71
									c-0.21-0.31-0.4-0.63-0.61-0.95c-0.35-0.53,0.26,0.53-0.02-0.04c-0.11-0.22-0.23-0.42-0.33-0.64
									c-0.61-1.24-1.07-2.56-1.32-3.92c-0.23-1.3-0.01,0.84-0.04-0.11c-0.01-0.42-0.03-0.84-0.05-1.26
									c-0.05-1.36-0.09-2.72-0.14-4.08c-0.24-7.2-0.45-14.41-0.66-21.61c-0.02-0.59-0.04-1.18-0.05-1.77
									c-0.01-2.18-2.23-1.98-3.69-1.15c-1.73,0.99-4.22,3.24-4.2,5.47c0.04,6.19,0.36,12.39,0.55,18.58
									c0.1,3.15,0.19,6.31,0.31,9.46c0.1,2.46,0.66,4.72,1.85,6.9c3.82,7.03,11.04,11.51,18.02,14.94
									c10.22,5.03,21.4,8.07,32.53,10.26c14.22,2.8,28.75,4.11,43.23,4.38c14.69,0.27,29.43-0.56,43.96-2.78
									c12.16-1.86,24.36-4.58,35.82-9.15c8.63-3.44,17.5-7.96,23.78-15c2.69-3.01,5.15-6.5,6.16-10.48
									c0.57-2.25,0.61-4.38,0.68-6.68c0.22-7.29,0.43-14.59,0.63-21.88c0.02-0.58,0.04-1.16,0.05-1.75
									c0.02-2.19-2.26-1.97-3.69-1.15C224.18,240.48,221.75,242.7,221.73,244.95L221.73,244.95z"/>
							</g>
						</g>
					</g>
					<g>
						<g>
							<path class="st1" d="M60.54,208.45c-12.08,3.67-25.03,8.92-33.16,19.05c-2.91,3.63-5.09,8.18-5.23,12.89
								c-0.1,3.42,0.89,6.51,2.61,9.42c4.14,7.03,11.74,11.66,18.83,15.23c10.44,5.26,21.85,8.59,33.27,10.96
								c14.38,2.98,29.11,4.39,43.79,4.56c14.87,0.18,29.79-0.92,44.43-3.58c12.48-2.26,24.78-5.57,36.38-10.76
								c8.7-3.89,17.34-9.11,23.3-16.71c4.72-6.02,7.08-13.97,3.31-21.09c-2.12-4-5.33-7.14-9.03-9.7c-4.98-3.45-10.57-6-16.24-8.08
								c-3.34-1.23-6.75-2.28-10.18-3.24c-2.05-0.57-4.5,1.6-5.58,3.11c-0.71,1-2.43,4.05-0.29,4.64
								c6.42,1.78,12.78,3.92,18.76,6.87c4.19,2.07,8.27,4.61,11.58,8.05c0.63,0.66,1.24,1.35,1.79,2.08
								c0.29,0.38,0.57,0.76,0.83,1.16c0.13,0.19,0.25,0.39,0.37,0.59c0.16,0.26,0.16,0.26,0,0c0.07,0.13,0.15,0.26,0.22,0.4
								c0.8,1.56,1.4,3.2,1.68,4.94c0.03,0.21,0.05,0.43,0.09,0.64c0.12,0.72,0-0.65,0.01,0.08c0,0.34,0.03,0.69,0.02,1.03
								c-0.01,0.73-0.1,1.45-0.21,2.17c-0.13,0.86,0.23-0.84-0.07,0.25c-0.07,0.28-0.16,0.55-0.25,0.83
								c-0.11,0.33-0.24,0.66-0.37,0.99c-0.15,0.39-0.48,0.64,0.15-0.34c-0.13,0.2-0.21,0.44-0.32,0.65
								c-0.17,0.33-0.35,0.66-0.54,0.98c-0.23,0.39-0.97,1.25,0.06-0.05c-0.53,0.68-1.01,1.4-1.55,2.08
								c-0.26,0.33-0.86,0.84,0.34-0.37c-0.15,0.15-0.28,0.32-0.42,0.47c-0.24,0.26-0.49,0.52-0.74,0.78
								c-0.31,0.32-0.63,0.63-0.95,0.93c-0.17,0.16-0.33,0.31-0.5,0.46c-0.94,0.87,0.81-0.67,0.13-0.11
								c-1.55,1.26-3.17,2.38-4.77,3.56c1.29-0.95-0.21,0.13-0.55,0.34c-0.47,0.29-0.94,0.57-1.41,0.85
								c-0.98,0.57-1.98,1.12-2.99,1.65c-1.06,0.55-2.13,1.09-3.2,1.6c-0.46,0.22-0.93,0.44-1.4,0.65
								c-0.17,0.08-1.15,0.51-0.15,0.07c-0.39,0.17-0.78,0.34-1.17,0.5c-2.45,1.04-4.94,1.99-7.45,2.86
								c-5.58,1.94-11.28,3.52-17.04,4.82c-2.76,0.62-5.83,1.23-8.95,1.77c-3.33,0.58-6.67,1.07-10.01,1.49
								c-7.09,0.89-14.22,1.44-21.36,1.68c-14.43,0.49-28.92-0.24-43.2-2.43c-11.9-1.82-23.76-4.59-34.99-8.97
								c-8.2-3.2-15.95-6.92-22.23-13.17c-1.18-1.17-2.27-2.43-3.22-3.79c-0.22-0.32-0.43-0.64-0.64-0.97
								c-0.07-0.11-0.4-0.68-0.04-0.05c-0.09-0.16-0.18-0.32-0.27-0.49c-0.34-0.64-0.64-1.29-0.9-1.96
								c-0.25-0.65-0.45-1.31-0.6-1.98c-0.06-0.28-0.12-0.55-0.16-0.83c-0.03-0.17-0.05-0.33-0.07-0.5c-0.13-0.81,0,0.46-0.01-0.06
								c-0.02-0.8-0.03-1.59,0.05-2.39c0.04-0.4,0.14-0.8,0.17-1.2c0.04-0.49-0.25,0.88-0.03,0.15c0.08-0.28,0.15-0.57,0.23-0.86
								c0.13-0.43,0.29-0.85,0.45-1.27c0.26-0.72-0.14-0.25-0.08,0.16c-0.02-0.12,0.25-0.51,0.3-0.62c0.22-0.42,0.47-0.81,0.69-1.23
								c0.32-0.58-0.12,0.47-0.28,0.42c0.03,0.01,0.51-0.73,0.56-0.8c0.3-0.4,0.64-0.78,0.94-1.18c-1.06,1.45,0.02,0,0.36-0.35
								c0.38-0.39,0.78-0.76,1.18-1.14c0.6-0.57-0.33,0.28-0.37,0.32c0.31-0.23,0.59-0.5,0.88-0.74c0.95-0.76,1.94-1.47,2.94-2.15
								c0.92-0.63-0.91,0.56,0.05-0.03c0.28-0.17,0.56-0.35,0.84-0.52c0.58-0.35,1.17-0.69,1.76-1.02c2.92-1.62,4.86-2.49,7.48-3.54
								c3.22-1.3,6.51-2.41,9.84-3.42c2.18-0.66,4.31-2.84,5-5C63.66,208.98,62.49,207.85,60.54,208.45L60.54,208.45z"/>
						</g>
					</g>
					<g>
						<g>
							<path class="st1" d="M68.85,226.6c-3.17,2.1-6.18,4.65-7.75,8.19c-1.03,2.32-1.22,5.07-0.79,7.56
								c0.63,3.65,3.4,6.7,6.25,8.87c4.13,3.15,9.03,5.31,13.91,6.99c6.36,2.19,12.97,3.61,19.62,4.57
								c15.65,2.27,31.81,2.3,47.45-0.09c6.76-1.03,13.52-2.5,19.98-4.78c5.3-1.87,10.58-4.27,15.04-7.74
								c3.76-2.91,7.54-6.91,8.64-11.69c0.56-2.45,0.52-4.97-0.57-7.29c-1.35-2.88-3.59-5.14-6.15-6.97
								c-1.64-1.18-3.4-2.19-5.19-3.12c-0.7-0.37-2.12,0.27-2.68,0.57c-1.08,0.58-2.19,1.55-2.9,2.55
								c-0.94,1.32-2.22,3.64-0.29,4.64c2.83,1.48,5.58,3.3,7.71,5.71c0.83,0.93,1.45,1.8,1.87,2.78c0.23,0.52,0.41,1.06,0.54,1.62
								c0.06,0.27,0.11,0.55,0.15,0.82c-0.09-0.58,0.01,0.36,0.01,0.5c-0.01,0.34-0.05,0.68-0.08,1.02
								c-0.05,0.52-0.29,0.3,0.07-0.24c-0.07,0.11-0.09,0.37-0.13,0.5c-0.1,0.34-0.23,0.66-0.35,0.99
								c-0.24,0.69,0.51-0.98,0.14-0.34c-0.12,0.21-0.22,0.44-0.35,0.65c-0.09,0.16-0.21,0.32-0.29,0.48
								c0.65-1.29,0.5-0.73,0.23-0.39c-0.2,0.26-0.41,0.52-0.61,0.78c-0.53,0.69,0.96-1.01,0.33-0.38
								c-0.15,0.15-0.29,0.31-0.44,0.46c-0.15,0.15-0.31,0.31-0.46,0.45c-0.4,0.38-1.15,0.68,0.17-0.13c-0.8,0.49-1.5,1.2-2.28,1.74
								c-0.29,0.2-1.06,0.58,0.18-0.11c-0.23,0.13-0.44,0.28-0.66,0.41c-0.54,0.33-1.08,0.64-1.64,0.94
								c-1.01,0.55-2.05,1.05-3.09,1.54c-0.94,0.44,0.85-0.36-0.11,0.05c-0.28,0.12-0.57,0.24-0.85,0.36
								c-0.69,0.28-1.38,0.55-2.07,0.82c-5.59,2.1-11.21,3.47-16.73,4.43c-14.26,2.49-29.07,2.9-43.46,1.34
								c-11.56-1.25-23.81-3.54-34.09-9.24c-1.39-0.77-3.57-2.23-5.1-3.62c-0.73-0.66-1.41-1.37-2.02-2.15
								c-0.28-0.36-0.54-0.73-0.79-1.11c-0.08-0.12-0.38-0.68-0.04-0.05c-0.11-0.22-0.23-0.43-0.33-0.65
								c-0.35-0.74-0.61-1.52-0.76-2.32c-0.03-0.17-0.04-0.34-0.08-0.51c-0.1-0.49-0.03,0.73,0.01-0.07c0.02-0.62,0-1.23,0.06-1.84
								c0.02-0.24,0.07-0.49,0.09-0.73c0.07-0.39,0.05-0.31-0.06,0.23c0.04-0.15,0.08-0.29,0.13-0.43c0.32-0.78-0.51,0.91-0.09,0.17
								c0.37-0.65-0.83,0.98-0.02,0.04c-1.09,1.27-0.42,0.49-0.16,0.22c0.39-0.36,0.27-0.27-0.34,0.27
								c0.17-0.14,0.34-0.28,0.51-0.42c0.73-0.57,1.49-1.09,2.26-1.6c1.48-0.98,3.75-3.62,3.11-5.58
								C72.8,224.17,69.88,225.92,68.85,226.6L68.85,226.6z"/>
						</g>
					</g>
					<g>
						<g>
							<path class="st1" d="M89.62,227.94c-4.06,2.71-7.27,6.66-6.57,11.76c0.31,2.3,1.97,4.32,3.71,5.74
								c5.71,4.63,13.69,6.47,20.78,7.58c9.91,1.55,20.16,1.67,30.09,0.28c8.16-1.14,16.62-3.2,23.48-7.96
								c3.13-2.17,6.24-5.4,7.28-9.16c1.31-4.74-1.61-8.44-5.46-10.86c-1.77-1.11-4.06,0.46-5.3,1.77
								c-0.83,0.87-1.61,1.86-1.98,3.02c-0.19,0.61-0.46,1.86,0.21,2.29c1.61,1.01,3.24,2.21,4.29,3.82
								c0.29,0.44,0.54,1.13,0.68,1.79c0.07,0.32,0.03,0.02,0.03-0.05c0.01,0.15,0.01,0.31,0.01,0.46
								c-0.01,0.23-0.05,0.45-0.07,0.68c-0.02,0.42,0.29-0.84-0.01-0.08c-0.07,0.18-0.36,0.92-0.04,0.16
								c0.31-0.74-0.02-0.03-0.11,0.15c-0.29,0.6,0.77-1.03,0.14-0.23c-0.7,0.88,0.71-0.69,0.23-0.23
								c-0.18,0.17-0.35,0.36-0.53,0.53c-0.7,0.71,0.91-0.71,0.25-0.21c-0.25,0.19-0.49,0.39-0.75,0.58
								c-0.32,0.24-1.28,0.71-0.01,0.04c-0.27,0.14-0.52,0.32-0.78,0.48c-0.6,0.35-1.22,0.68-1.84,0.98
								c-0.21,0.1-1.4,0.62-0.35,0.18c-0.33,0.14-0.66,0.28-1,0.42c-0.75,0.3-1.51,0.58-2.28,0.85c-3.67,1.25-6.71,1.92-10.34,2.49
								c-8.63,1.35-17.56,1.56-26.24,0.57c-7-0.8-14.34-2.22-20.61-5.59c-0.16-0.09-0.32-0.17-0.48-0.26
								c0.31,0.18-0.1-0.06-0.21-0.13c-0.29-0.18-0.58-0.36-0.86-0.55c-0.55-0.38-1.09-0.79-1.6-1.23c-0.45-0.4-0.89-0.83-1.27-1.29
								c-0.17-0.2-0.33-0.41-0.48-0.63c-0.08-0.1-0.14-0.21-0.21-0.32c-0.2-0.29,0.27,0.57,0.02,0.03c-0.2-0.43-0.39-0.85-0.51-1.31
								c-0.03-0.13-0.18-0.98-0.11-0.45c0.07,0.51,0.01-0.4,0.01-0.57c0.01-0.4,0.07-0.78,0.1-1.18c0-0.01-0.16,0.72-0.05,0.35
								c0.14-0.48-0.46,0.89-0.11,0.26c-0.25,0.46-0.55,0.85-0.92,1.23c0.47-0.49-0.16,0.19-0.32,0.26
								c0.52-0.21,1.15-0.85,1.61-1.16c1.48-0.99,3.75-3.62,3.11-5.58C93.57,225.51,90.65,227.25,89.62,227.94L89.62,227.94z"/>
						</g>
					</g>
				</g>
			</g>
			<g>
				<g>
					<path class="st1" d="M140.51,68.26c-5.89-1.06-10.29-5.04-9.03-11.99c1.25-6.95,6.75-9.12,12.65-8.05
						c2.59,0.47,5.27,1.64,6.86,3.85c0.34,0.52,0.52,1.07,0.4,1.74c-0.22,1.22-1.32,1.91-2.49,1.7c-1.06-0.19-1.82-1.19-2.56-1.7
						c-0.84-0.58-1.76-0.92-2.98-1.14c-3.17-0.57-5.93,0.91-6.59,4.55c-0.66,3.64,1.41,6.02,4.58,6.6c1.56,0.28,3.19,0.29,4.73-0.27
						c0.49-0.17,0.96-0.2,1.34-0.13c1.31,0.24,2.09,1.61,1.88,2.78c-0.11,0.58-0.46,1.12-1.12,1.43
						C145.69,68.85,143.1,68.73,140.51,68.26z"/>
					<path class="st1" d="M172.64,64.33c-1.61-0.9-2.85-1.44-3.93-2.01c-1.38-0.74-1.55-2.09-0.88-3.07
						c0.75-1.1,1.71-1.29,2.87-0.74c2.4,1.1,4.25,2.05,6.46,3.57c2.12,1.45,3.69,2.81,5.57,4.67c0.94,0.88,1.1,1.85,0.35,2.94
						c-0.67,0.98-1.99,1.31-3.18,0.29c-0.92-0.8-1.87-1.76-3.29-2.94l-7.53,10.98c-0.77,1.12-2.28,1.18-3.26,0.51
						s-1.47-2.1-0.7-3.22L172.64,64.33z"/>
					<path class="st1" d="M201.2,102.63c1.76-0.96,2.29-2.28,1.49-3.75c-0.8-1.46-2.2-1.73-3.96-0.77l-8.8,4.81
						c-1.19,0.65-2.4,0.32-3.16-1.07c-0.72-1.31-0.36-2.54,0.83-3.19l8.8-4.81c1.76-0.96,2.29-2.28,1.49-3.75
						c-0.8-1.46-2.2-1.73-3.96-0.77l-8.8,4.81c-1.19,0.65-2.38,0.37-3.14-1.02c-0.76-1.39-0.39-2.59,0.8-3.24l8.8-4.81
						c5.18-2.83,8.08-1.13,10.26,2.86c0.98,1.79,1.23,3.61,0.29,5.54c2.13,0.25,3.53,1.45,4.51,3.24c2.26,4.14,1.58,7.6-3.13,10.18
						l-8.8,4.81c-1.19,0.65-2.4,0.32-3.16-1.07c-0.76-1.39-0.36-2.54,0.83-3.19L201.2,102.63z"/>
				</g>
				<g>
					<path class="st1" d="M108.22,203.88c5.85,1.31,10.07,5.48,8.52,12.37c-1.55,6.89-7.14,8.82-12.98,7.51
						c-2.56-0.58-5.2-1.86-6.69-4.14c-0.31-0.53-0.48-1.09-0.33-1.75c0.27-1.21,1.4-1.86,2.56-1.6c1.05,0.24,1.77,1.27,2.49,1.81
						c0.82,0.62,1.72,0.99,2.93,1.27c3.14,0.71,5.97-0.66,6.78-4.27s-1.15-6.08-4.3-6.79c-1.54-0.35-3.18-0.42-4.74,0.07
						c-0.5,0.15-0.96,0.16-1.35,0.07c-1.3-0.29-2.02-1.7-1.76-2.86c0.13-0.58,0.51-1.1,1.18-1.39
						C103.07,203.07,105.66,203.3,108.22,203.88z"/>
					<path class="st1" d="M75.99,206.71c1.58,0.95,2.81,1.53,3.87,2.13c1.35,0.78,1.48,2.14,0.78,3.09
						c-0.78,1.07-1.75,1.24-2.89,0.65c-2.37-1.17-4.18-2.18-6.35-3.77c-2.08-1.52-3.61-2.92-5.42-4.84
						c-0.91-0.91-1.04-1.88-0.26-2.95c0.7-0.96,2.03-1.25,3.19-0.19c0.9,0.83,1.82,1.82,3.2,3.04l7.85-10.74
						c0.8-1.09,2.32-1.11,3.27-0.41s1.41,2.15,0.6,3.24L75.99,206.71z"/>
					<path class="st1" d="M48.67,167.48c-1.79,0.9-2.37,2.2-1.63,3.69c0.75,1.49,2.14,1.81,3.93,0.91l8.97-4.49
						c1.21-0.61,2.41-0.23,3.12,1.19c0.67,1.34,0.27,2.55-0.95,3.16l-8.97,4.49c-1.79,0.9-2.37,2.2-1.63,3.69
						c0.75,1.49,2.14,1.81,3.93,0.91l8.97-4.49c1.21-0.61,2.39-0.28,3.1,1.14c0.71,1.42,0.29,2.6-0.92,3.21l-8.97,4.49
						c-5.28,2.64-8.11,0.84-10.15-3.23c-0.91-1.82-1.1-3.65-0.09-5.55c-2.12-0.33-3.48-1.58-4.39-3.4
						c-2.11-4.22-1.31-7.66,3.5-10.06l8.97-4.49c1.21-0.61,2.41-0.23,3.12,1.19c0.71,1.42,0.27,2.55-0.95,3.16L48.67,167.48z"/>
				</g>
				<g id="LogoBase_64_">
					<g id="Ring1_239_">
						<g>
							<path class="st1" d="M27.9,133.76c0.01-5.33,0.42-10.65,1.26-15.92c0.18-1.12,0.38-2.24,0.6-3.36c0.07-0.33,0.13-0.67,0.2-1
								c0.22-1.1-0.16,0.67,0.09-0.42c0.15-0.66,0.3-1.32,0.46-1.98c0.61-2.51,1.31-4.99,2.11-7.45c0.76-2.33,1.6-4.63,2.53-6.89
								c0.25-0.62,0.52-1.23,0.78-1.84c0.42-0.99-0.26,0.54,0.03-0.07c0.12-0.25,0.23-0.5,0.34-0.76c0.55-1.2,1.13-2.4,1.73-3.58
								c1.14-2.26,2.37-4.47,3.69-6.63c0.28-0.47,0.57-0.94,0.86-1.4c0.18-0.28,0.35-0.56,0.53-0.83c0.45-0.71-0.07,0.09-0.13,0.2
								c0.62-1.14,1.48-2.2,2.23-3.25c1.46-2.04,3-4.03,4.61-5.96c0.35-0.42,0.71-0.83,1.06-1.25c0.76-0.89-0.8,0.89-0.01,0.02
								c0.22-0.24,0.44-0.49,0.66-0.73c0.81-0.89,1.63-1.77,2.46-2.63c1.75-1.8,3.58-3.52,5.44-5.2c0.87-0.78-0.91,0.77-0.02,0.01
								c0.17-0.14,0.33-0.28,0.5-0.43c0.5-0.42,1-0.85,1.51-1.26c1.01-0.83,2.05-1.64,3.09-2.43c0.87-0.66,1.76-1.3,2.65-1.93
								c0.54-0.38,1.08-0.75,1.62-1.12c0.23-0.15,0.46-0.3,0.68-0.46c1.02-0.69-0.6,0.37,0.22-0.14c2.13-1.35,4.3-2.65,6.52-3.85
								c2.14-1.16,4.32-2.22,6.52-3.23c1.02-0.47-0.81,0.34,0.22-0.1c0.31-0.13,0.61-0.26,0.92-0.39c0.51-0.22,1.02-0.43,1.54-0.63
								c1.24-0.5,2.49-0.97,3.74-1.42c2.37-0.84,4.77-1.6,7.2-2.26c1.14-0.31,2.29-0.6,3.44-0.87c0.33-0.08,0.66-0.15,0.99-0.23
								c0.05-0.01,1.14-0.24,0.42-0.09c0.67-0.14,1.33-0.27,2-0.4c5.09-0.96,10.26-1.52,15.44-1.68c10.36-0.32,20.47,0.95,30.54,3.9
								c19.03,5.58,35.96,16.86,48.56,32.2c6.28,7.65,11.31,16.06,15.03,25.22c1.89,4.66,3.43,9.47,4.6,14.36
								c1.14,4.8,2.01,10.15,2.36,14.78c0.4,5.3,0.39,10.62-0.04,15.92c-0.21,2.58-0.52,5.14-0.93,7.7c-0.2,1.24-0.42,2.47-0.66,3.7
								c-0.07,0.33-0.13,0.67-0.2,1c0.03-0.15,0.14-0.61-0.02,0.09c-0.17,0.77-0.35,1.54-0.54,2.31c-1.2,4.88-2.77,9.67-4.69,14.32
								c-0.21,0.51-0.43,1.02-0.65,1.53c-0.44,1.03,0.37-0.8-0.1,0.22c-0.14,0.3-0.27,0.6-0.41,0.91c-0.51,1.1-1.04,2.19-1.59,3.28
								c-1.14,2.26-2.37,4.47-3.69,6.63c-0.31,0.52-0.63,1.03-0.95,1.54c-0.15,0.23-0.29,0.46-0.44,0.69
								c-0.61,0.97,0.59-0.87-0.05,0.08c-0.73,1.09-1.47,2.18-2.24,3.24c-1.41,1.95-2.88,3.85-4.42,5.7
								c-0.39,0.46-0.99,0.96-1.27,1.5c0.44-0.83,0.53-0.6,0.23-0.26c-0.22,0.24-0.44,0.49-0.66,0.73
								c-0.88,0.97-1.78,1.93-2.69,2.86c-1.68,1.72-3.43,3.36-5.22,4.97c-0.87,0.78,0.91-0.77,0.02-0.01
								c-0.25,0.21-0.5,0.43-0.75,0.64c-0.42,0.35-0.84,0.7-1.26,1.05c-1.01,0.83-2.05,1.64-3.09,2.43
								c-0.96,0.73-1.93,1.43-2.92,2.12c-0.45,0.31-0.9,0.62-1.35,0.93c-0.27,0.18-0.55,0.36-0.82,0.55
								c-0.43,0.28-0.37,0.24,0.2-0.13c-0.18,0.12-0.37,0.24-0.55,0.36c-4.18,2.67-8.55,5.02-13.07,7.04
								c0.96-0.43-0.64,0.27-0.84,0.35c-0.61,0.26-1.23,0.51-1.85,0.76c-1.14,0.45-2.28,0.88-3.43,1.29
								c-2.42,0.86-4.88,1.63-7.36,2.31c-1.2,0.32-2.4,0.63-3.61,0.9c-0.33,0.08-0.66,0.15-0.99,0.22c-0.1,0.02-0.67,0.14-0.09,0.02
								c-0.78,0.16-1.56,0.32-2.34,0.46c-2.47,0.46-4.97,0.82-7.47,1.09c-10.51,1.13-20.72,0.63-30.97-1.55
								c-19.45-4.15-37.18-14.11-50.89-28.51c-13.82-14.51-22.92-32.95-26.02-52.78C28.25,143.51,27.91,138.91,27.9,133.76
								c0-2.19-2.24-1.98-3.69-1.15c-1.73,0.99-4.21,3.23-4.2,5.47c0.04,21.31,6.6,42.12,19.01,59.48
								c11.89,16.62,28.89,29.43,48.11,36.36c20.37,7.34,42.97,7.82,63.72,1.74c20.76-6.08,39.23-18.76,52.95-35.41
								c13.67-16.58,22.17-37.34,23.8-58.79c1.62-21.29-3.49-42.62-14.56-60.87c-10.66-17.58-26.72-31.57-45.48-39.93
								c-19.43-8.66-41.6-10.89-62.4-6.49c-21.15,4.47-40.64,15.47-55.52,31.15c-14.95,15.75-25.07,35.69-28.43,57.18
								c-0.81,5.15-1.2,10.36-1.21,15.58c0,2.19,2.24,1.98,3.69,1.15C25.44,138.24,27.9,136.01,27.9,133.76z"/>
						</g>
					</g>
					<g id="Ring2_139_">
						<g>
							<path class="st1" d="M66.1,133.76c0.01-3.24,0.25-6.48,0.75-9.69c0.11-0.73,0.24-1.46,0.38-2.18
								c0.03-0.16,0.25-1.19,0.12-0.59c0.09-0.39,0.17-0.77,0.27-1.15c0.37-1.53,0.79-3.04,1.28-4.53c0.48-1.48,1.02-2.94,1.61-4.39
								c0.13-0.31,0.26-0.61,0.39-0.92c0.05-0.12,0.35-0.77,0.11-0.26c-0.22,0.48,0.02-0.03,0.05-0.11c0.33-0.7,0.66-1.4,1-2.09
								c0.69-1.37,1.44-2.72,2.23-4.04c0.2-0.33,0.4-0.66,0.6-0.98c0.18-0.29,0.62-1.3,0.14-0.22c0.3-0.66,0.88-1.31,1.3-1.89
								c0.89-1.24,1.83-2.45,2.81-3.63c0.13-0.16,0.61-0.55,0.64-0.75c-0.01,0.07-0.85,0.95-0.23,0.26
								c0.11-0.12,0.22-0.24,0.33-0.37c0.51-0.57,1.04-1.12,1.57-1.67c1.07-1.1,2.19-2.13,3.31-3.16c0.41-0.38-0.39,0.34-0.39,0.34
								c0.09-0.01,0.4-0.34,0.5-0.43c0.25-0.21,0.5-0.42,0.76-0.63c0.63-0.52,1.28-1.02,1.93-1.52c0.57-0.43,1.14-0.85,1.72-1.25
								c0.31-0.22,0.63-0.43,0.95-0.65c0.13-0.09,0.27-0.21,0.41-0.27c-0.25,0.11-0.71,0.46-0.2,0.13c1.3-0.82,2.62-1.61,3.97-2.34
								c0.68-0.37,1.36-0.72,2.06-1.06c0.3-0.15,0.6-0.29,0.89-0.43c0.3-0.14,1.34-0.61,0.52-0.25c1.42-0.62,2.87-1.2,4.34-1.71
								c1.42-0.5,2.87-0.95,4.33-1.34c0.76-0.21,1.53-0.4,2.29-0.57c0.17-0.04,0.33-0.08,0.5-0.11c-0.07,0.01-0.49,0.1-0.08,0.02
								c0.44-0.09,0.89-0.18,1.34-0.26c3.12-0.57,6.28-0.9,9.44-0.99c6.28-0.18,12.29,0.6,18.44,2.41
								c11.67,3.43,21.98,10.33,29.72,19.74c3.84,4.67,6.88,9.74,9.15,15.33c2.29,5.62,3.85,12.03,4.29,17.79
								c0.25,3.2,0.24,6.42-0.01,9.62c-0.13,1.6-0.31,3.2-0.56,4.79c-0.11,0.73-0.24,1.46-0.38,2.18c-0.03,0.17-0.25,1.17-0.12,0.59
								c-0.1,0.44-0.2,0.88-0.31,1.32c-0.73,2.98-1.68,5.91-2.85,8.76c-0.15,0.36-0.3,0.72-0.45,1.07
								c-0.03,0.08-0.27,0.59-0.05,0.11c0.23-0.51-0.07,0.14-0.12,0.26c-0.33,0.7-0.66,1.4-1.01,2.08c-0.7,1.37-1.45,2.72-2.24,4.03
								c-0.17,0.28-0.34,0.56-0.52,0.84c-0.12,0.19-0.24,0.37-0.35,0.55c-0.28,0.45,0.22-0.33,0.22-0.33
								c-0.29,0.66-0.88,1.3-1.3,1.89c-0.89,1.24-1.83,2.45-2.81,3.63c-0.15,0.18-0.94,1.1-0.41,0.49c0.56-0.64-0.32,0.35-0.43,0.48
								c-0.51,0.56-1.04,1.12-1.57,1.67c-0.5,0.51-1,1-1.51,1.49c-0.47,0.45-1.51,1.08-1.81,1.66c0,0.01,0.82-0.69,0.39-0.34
								c-0.13,0.1-0.25,0.21-0.37,0.32c-0.29,0.25-0.59,0.49-0.88,0.73c-0.59,0.48-1.2,0.95-1.81,1.41
								c-0.61,0.46-1.23,0.91-1.86,1.35c-0.27,0.19-0.54,0.37-0.81,0.56c-0.14,0.1-0.73,0.51-0.17,0.12
								c0.56-0.39-0.06,0.04-0.18,0.11c-1.3,0.82-2.62,1.6-3.98,2.33c-0.63,0.34-1.27,0.67-1.91,0.98c-0.35,0.17-0.69,0.34-1.04,0.5
								c-0.29,0.14-1.14,0.51-0.37,0.18c-2.86,1.25-5.81,2.29-8.82,3.1c-0.71,0.19-1.42,0.37-2.13,0.53
								c-0.17,0.04-0.33,0.08-0.5,0.11c0.59-0.13,0.02,0-0.09,0.02c-0.45,0.09-0.89,0.18-1.34,0.26c-1.52,0.27-3.05,0.49-4.59,0.65
								c-6.43,0.67-12.47,0.36-18.71-0.98c-11.97-2.57-22.79-8.68-31.21-17.55c-8.44-8.89-13.95-20.11-15.86-32.25
								C66.3,139.57,66.11,136.94,66.1,133.76c-0.01-2.18-2.24-1.98-3.69-1.15c-1.73,0.99-4.21,3.23-4.2,5.47
								c0.04,13.36,4.09,26.32,11.85,37.21c7.43,10.42,18.12,18.42,30.16,22.72c12.83,4.59,27.07,4.78,40.1,0.91
								c13.39-3.97,25.22-12.28,34.05-23.02c8.64-10.51,14.08-23.67,15.14-37.25c1.05-13.41-2.17-26.78-9.13-38.27
								c-6.64-10.96-16.67-19.63-28.36-24.83c-12.29-5.48-26.27-6.73-39.39-3.91C99.2,74.53,86.79,81.67,77.34,91.63
								c-9.63,10.15-16.2,22.91-18.38,36.77c-0.5,3.21-0.75,6.44-0.75,9.69c-0.01,2.19,2.25,1.97,3.69,1.15
								C63.64,138.24,66.09,136.01,66.1,133.76z"/>
						</g>
					</g>
					<g id="Ring3_140_">
						<g>
							<path class="st1" d="M89.7,133.76c0.01-1.96,0.15-3.92,0.45-5.86c0.07-0.45,0.15-0.9,0.23-1.34
								c0.04-0.22,0.09-0.44,0.13-0.66c-0.13,0.59,0,0.03,0.03-0.08c0.25-0.97,0.5-1.95,0.81-2.9c0.27-0.84,0.57-1.68,0.91-2.5
								c0.08-0.2,0.17-0.41,0.25-0.61c0.4-0.99-0.28,0.53,0.03-0.07c0.22-0.44,0.42-0.89,0.64-1.34c0.4-0.78,0.82-1.55,1.27-2.3
								c0.22-0.37,0.43-0.77,0.69-1.11c-0.81,1.05,0.25-0.33,0.44-0.6c0.51-0.71,1.04-1.4,1.6-2.07c0.03-0.04,0.41-0.41,0.42-0.5
								c-0.06,0.4-0.68,0.76-0.23,0.27c0.37-0.4,0.74-0.8,1.12-1.19c0.3-0.31,0.61-0.61,0.93-0.91c0.23-0.22,0.85-0.6,0.96-0.88
								c-0.18,0.46-0.75,0.63-0.26,0.24c0.17-0.14,0.33-0.28,0.5-0.42c0.42-0.34,0.85-0.68,1.29-1c0.35-0.26,0.7-0.52,1.06-0.76
								c0.12-0.08,0.38-0.31,0.54-0.37c-0.76,0.26-0.54,0.34-0.2,0.13c0.84-0.52,1.68-1.02,2.55-1.48c0.39-0.21,0.78-0.4,1.17-0.6
								c0.26-0.12,1.36-0.62,0.51-0.25c0.92-0.39,1.84-0.76,2.78-1.08c0.84-0.29,1.7-0.55,2.56-0.78c0.43-0.12,0.87-0.22,1.31-0.32
								c-0.59,0.14-0.03,0,0.08-0.02c0.33-0.06,0.67-0.13,1-0.19c1.93-0.33,3.88-0.51,5.83-0.55c3.73-0.07,7.31,0.44,11.04,1.57
								c7.07,2.14,13.23,6.35,17.91,12.1c2.32,2.85,4.11,5.85,5.47,9.26c1.35,3.36,2.33,7.37,2.58,10.69
								c0.15,1.97,0.13,3.95-0.03,5.92c-0.07,0.91-0.18,1.82-0.32,2.73c-0.07,0.45-0.15,0.9-0.23,1.34
								c-0.04,0.22-0.09,0.44-0.13,0.66c0.11-0.5-0.01,0.02-0.07,0.24c-0.44,1.84-1.03,3.64-1.74,5.39
								c-0.08,0.2-0.18,0.41-0.26,0.61c-0.24,0.62,0.44-0.9-0.03,0.06c-0.19,0.4-0.38,0.79-0.58,1.19
								c-0.42,0.83-0.87,1.64-1.35,2.44c-0.11,0.19-0.23,0.37-0.34,0.56c-0.22,0.36-0.27,0.86,0.04-0.06
								c-0.12,0.36-0.52,0.76-0.75,1.07c-0.54,0.75-1.12,1.47-1.7,2.19c-0.81,0.99,0.67-0.71-0.19,0.22
								c-0.33,0.36-0.66,0.72-1.01,1.07c-0.3,0.31-0.61,0.61-0.93,0.91c-0.16,0.15-0.32,0.3-0.48,0.44
								c-0.14,0.12-0.85,0.79-0.23,0.21c0.63-0.59-0.48,0.39-0.62,0.51c-0.38,0.31-0.77,0.61-1.16,0.9
								c-0.35,0.26-0.7,0.52-1.06,0.76c-0.14,0.1-0.39,0.32-0.54,0.37c0.44-0.13,0.66-0.41,0.06-0.04
								c-0.79,0.49-1.59,0.96-2.41,1.39c-0.39,0.21-0.78,0.4-1.17,0.6c-0.2,0.1-0.4,0.19-0.6,0.28c-0.72,0.35,0.41-0.15-0.06,0.03
								c-1.77,0.69-3.51,1.35-5.35,1.83c-0.22,0.06-0.43,0.11-0.65,0.16c-0.09,0.02-0.77,0.18-0.37,0.09
								c0.4-0.09-0.29,0.06-0.37,0.07c-0.22,0.04-0.44,0.08-0.67,0.12c-1.01,0.18-2.03,0.32-3.05,0.41
								c-3.95,0.37-7.42,0.17-11.23-0.68c-14.63-3.27-25.99-15.34-28.4-30.14C89.82,137.22,89.71,135.77,89.7,133.76
								c-0.01-2.18-2.24-1.98-3.69-1.15c-1.73,0.99-4.21,3.23-4.2,5.47c0.04,8.53,2.59,16.73,7.59,23.67
								c4.69,6.52,11.49,11.5,19.07,14.14c8.14,2.83,17.14,2.83,25.36,0.34c8.8-2.67,16.5-8.24,22.3-15.31
								c5.56-6.77,9.14-15.28,9.84-24.03c0.69-8.56-1.38-17.03-5.83-24.35c-4.17-6.84-10.46-12.19-17.77-15.44
								c-7.95-3.53-16.91-4.13-25.36-2.25c-17.59,3.91-31.81,19.34-34.7,37.03c-0.33,2.05-0.49,4.12-0.5,6.2
								c-0.01,2.19,2.25,1.97,3.69,1.15C87.25,138.24,89.69,136.01,89.7,133.76z"/>
						</g>
					</g>
					<g id="Ring4_147_">
						<circle class="st1" cx="123.96" cy="135.93" r="14.65"/>
					</g>
				</g>
			</g>
		</g>
	</g>
</g>
<g id="CtmLoader">
</g>
<g id="Texts">
</g>
<g id="LandingPageAndArtOld">
	<g id="LandingV2Sim">
	</g>
	<g id="LandingPageOld_1_">
	</g>
</g>
<g id="CtmSiteLandingPoster">
</g>
<g id="P3">
</g>
<g id="LandingArtOld">
</g>
<g id="LogoBaseRobiconFull">
</g>
<g id="LogobaseRobicon">
</g>
<g id="CtmLogoProgressIndicator">
</g>
<g id="Safe">
</g>
<g id="Elvis">
</g>
</svg>
