<?xml version="1.0" encoding="utf-8"?>
<!-- Generator: Adobe Adobe Illustrator 24.2.0, SVG Export Plug-In . SVG Version: 6.00 Build 0)  -->
<svg version="1.1" xmlns="http://www.w3.org/2000/svg" xmlns:xlink="http://www.w3.org/1999/xlink" x="0px" y="0px"
	 viewBox="0 0 108 108" style="enable-background:new 0 0 108 108;" xml:space="preserve">
<style type="text/css">
	.st0{fill:none;stroke:#000000;stroke-miterlimit:10;}
	.st1{fill:#2C0078;}
	.st2{fill:#EDA514;}
	.st3{display:none;fill:#2C0078;}
	.st4{display:none;}
	.st5{display:inline;}
	.st6{display:inline;fill:#EDA514;}
	.st7{fill:none;}
	.st8{fill:#EDCF9F;}
	.st9{display:inline;fill:none;stroke:#000000;stroke-width:8.1928;stroke-miterlimit:10;stroke-dasharray:0,0,0,0,0,0;}
	.st10{display:inline;fill:none;stroke:#000000;stroke-miterlimit:10;stroke-dasharray:0,0,0,0,0,0;}
	.st11{fill:none;stroke:#000000;stroke-width:8.1928;stroke-miterlimit:10;stroke-dasharray:0,0,0,0,0,0;}
	.st12{display:inline;fill:#EDCF9F;}
	.st13{fill:none;stroke:#380A0A;stroke-miterlimit:10;}
	.st14{fill:#A6720A;}
	.st15{fill:#A6720A;stroke:#A6720A;stroke-miterlimit:10;}
	.st16{fill:none;stroke:#A6720A;stroke-width:2.2221;stroke-miterlimit:10;}
	.st17{fill:none;stroke:#A6720A;stroke-miterlimit:10;}
	.st18{fill:#998F40;}
	.st19{fill:#380A0A;}
	.st20{fill:#B35095;}
	.st21{fill:#B37B50;}
	.st22{fill:none;stroke:#380A0A;stroke-width:0.4744;stroke-miterlimit:10;}
	.st23{fill:#380A0A;stroke:#000000;stroke-width:0.4744;stroke-miterlimit:10;}
	.st24{fill:#2C0078;stroke:#A6720A;stroke-width:2.2221;stroke-miterlimit:10;}
	.st25{opacity:0;fill:none;stroke:#EDA514;stroke-width:2.2221;stroke-miterlimit:10;}
</style>
<g id="Background">
</g>
<g id="CtmArt">
</g>
<g id="LogoBase">
	<g id="LandongPosterBG">
	</g>
</g>
<g id="LogoProducts">
</g>
<g id="TextAndLogo">
</g>
<g id="Drawing">
</g>
<g id="Test">
</g>
<g id="TextOrigain">
</g>
<g id="TextSource">
</g>
<g id="CtmLogoBase">
</g>
<g id="CtmTextLogoBase">
</g>
<g id="LandingPosterBu1">
</g>
<g id="CtmArtTest">
</g>
<g id="LandingPoster_1_">
</g>
<g id="LogoFeatures">
</g>
<g id="Token_1_">
</g>
<g id="LandingPosterOld">
	<g id="BG">
	</g>
</g>
<g id="PosterBaseGrapics">
</g>
<g id="LandingLogoText">
</g>
<g id="GoldTest">
</g>
<g id="BigScreen">
</g>
<g id="LandingArt">
</g>
<g id="LogoBaseRobiconFull">
	<g id="LogoBaseRob_3_">
		<g id="Ring1_4_">
			<circle class="st2" cx="54" cy="54" r="50"/>
			<g>
				<path class="st19" d="M6.76,52.49c0.02-5.05,0.74-10.05,2.31-14.85c0.76-2.34,1.57-4.31,2.6-6.36c1.19-2.36,2.32-4.2,3.63-6.01
					c0.67-0.93,1.37-1.83,2.11-2.71c0.17-0.21,0.35-0.42,0.53-0.62c-0.51,0.59,0.2-0.22,0.25-0.28c0.44-0.48,0.89-0.96,1.35-1.43
					c0.84-0.86,1.71-1.68,2.61-2.47c-0.51,0.45,0.03-0.03,0.16-0.13c0.21-0.17,0.42-0.35,0.63-0.52c0.51-0.41,1.02-0.82,1.54-1.21
					c3.56-2.68,7.73-4.94,12.21-6.5c19.15-6.66,40.83-0.13,53.59,15.49c6.18,7.58,10.03,17.04,10.82,26.8
					c0.81,10.05-1.57,20.11-6.69,28.5c-0.11,0.19-0.23,0.37-0.35,0.56c-0.01,0.01-0.6,0.91-0.25,0.39c-0.3,0.45-0.61,0.9-0.93,1.35
					c-0.76,1.07-1.56,2.1-2.4,3.1c-0.05,0.06-0.76,0.88-0.24,0.29c-0.14,0.16-0.29,0.33-0.44,0.49c-0.44,0.48-0.89,0.96-1.35,1.43
					c-0.84,0.86-1.71,1.68-2.61,2.47c0.59-0.52-0.23,0.19-0.29,0.24c-0.25,0.21-0.5,0.42-0.76,0.62c-0.42,0.34-0.85,0.68-1.29,1.01
					c-0.44,0.33-0.88,0.65-1.32,0.96c-0.27,0.19-0.54,0.37-0.81,0.56c-0.33,0.22-0.36,0.24-0.11,0.08
					c-0.18,0.12-0.37,0.24-0.55,0.35c-1.87,1.17-4.29,2.47-6.01,3.22c-9.15,4-19.52,4.98-29.28,2.87
					C25.85,95.93,10.5,79.67,7.34,59.88C6.95,57.43,6.77,54.97,6.76,52.49c-0.01-1.55-1.56-1.35-2.58-0.81
					c-1.22,0.66-2.95,2.29-2.94,3.83c0.04,10.81,3.33,21.3,9.65,30.09c6.07,8.45,14.8,14.93,24.62,18.34
					c10.31,3.59,21.72,3.69,32.15,0.53c10.59-3.21,19.97-9.8,26.95-18.35c6.88-8.43,11.19-18.95,12.01-29.81
					c0.82-10.79-1.79-21.56-7.42-30.79C93.81,16.69,85.68,9.68,76.2,5.51C66.2,1.1,54.91,0.18,44.26,2.5
					C22.65,7.23,5.34,25.79,1.87,47.57c-0.42,2.63-0.62,5.28-0.63,7.94c-0.01,1.55,1.57,1.35,2.58,0.81
					C5.05,55.66,6.76,54.03,6.76,52.49z"/>
			</g>
		</g>
		<g id="Ring2_4_">
			<g>
				<path class="st19" d="M25.07,52.92c0.07-11.82,7.07-22.49,18.38-26.32c11.73-3.98,24.93,0.09,32.72,9.62
					c7.74,9.47,9.01,23.3,2.66,33.83C72.7,80.23,60.08,84.79,48.62,82.2C36.7,79.5,27.41,69.6,25.44,57.54
					C25.19,56.01,25.08,54.47,25.07,52.92c-0.01-2.26-3.95,0.57-3.95,2.16c0.08,13.44,8.54,25.67,21.32,30.08
					c13.34,4.6,28.03-0.49,36.81-11.23c8.68-10.61,10.12-25.82,3-37.62C75.2,24.62,61.16,19,47.94,21.95
					c-13.43,2.99-24.2,14.58-26.41,28.12c-0.27,1.66-0.4,3.33-0.4,5.01c-0.01,1.11,1.12,0.96,1.84,0.58
					C23.85,55.18,25.06,54.02,25.07,52.92z"/>
			</g>
		</g>
		<g id="Ring3_5_">
			<g>
				<path class="st19" d="M36.87,52.92c0.06-6.94,3.93-13.06,10.62-15.22c7.06-2.28,14.92,0.32,19.55,6.02
					c4.59,5.63,5.48,13.91,1.7,20.2c-3.55,5.93-11.09,8.31-17.71,6.73C42.9,68.71,36.95,61.3,36.87,52.92
					c-0.02-2.26-3.96,0.57-3.95,2.16c0.08,8.52,5.39,16.27,13.57,18.98c8.68,2.88,18.01-0.72,23.64-7.63
					c5.56-6.83,6.58-16.54,1.95-24.13c-4.53-7.43-13.54-10.77-21.89-8.77c-9.68,2.32-17.18,11.58-17.27,21.54
					c-0.01,1.11,1.12,0.96,1.84,0.58C35.65,55.18,36.86,54.03,36.87,52.92z"/>
			</g>
		</g>
		<g id="Ring4_3_">
			<circle class="st19" cx="54" cy="54" r="7.32"/>
		</g>
	</g>
</g>
<g id="LandingPage">
</g>
<g id="LogobaseRobicon">
</g>
</svg>
