<?xml version="1.0" encoding="utf-8"?>
<!-- Generator: Adobe Adobe Illustrator 24.2.0, SVG Export Plug-In . SVG Version: 6.00 Build 0)  -->
<svg version="1.1" xmlns="http://www.w3.org/2000/svg" xmlns:xlink="http://www.w3.org/1999/xlink" x="0px" y="0px"
	 viewBox="0 0 250 320" style="enable-background:new 0 0 250 320;" xml:space="preserve">
<style type="text/css">
	.st0{fill:#2C0078;}
	.st1{fill:#EDA514;}
	.st2{fill:#2C0078;stroke:#380A0A;stroke-width:0.8291;stroke-miterlimit:10;}
	.st3{fill:url(#SVGID_1_);}
	.st4{fill:url(#SVGID_2_);}
	.st5{fill:#370003;}
	.st6{opacity:0.8902;}
	.st7{fill:none;stroke:#370003;stroke-width:0.4087;stroke-miterlimit:10;}
	.st8{fill:none;stroke:#370003;stroke-width:0.3001;stroke-miterlimit:10;}
	.st9{fill:none;stroke:#A6720A;stroke-linejoin:round;stroke-miterlimit:10;}
	.st10{fill:none;stroke:#A6720A;stroke-miterlimit:10;}
	.st11{fill:url(#SVGID_3_);stroke:#000000;stroke-miterlimit:10;}
	.st12{fill:url(#SVGID_4_);stroke:#000000;stroke-miterlimit:10;}
	.st13{fill:url(#SVGID_5_);stroke:#000000;stroke-miterlimit:10;}
	.st14{fill:url(#SVGID_6_);stroke:#000000;stroke-miterlimit:10;}
	.st15{fill:url(#SVGID_7_);}
	.st16{fill:url(#SVGID_8_);}
	.st17{opacity:0.8392;}
	.st18{fill:#B37B50;}
	.st19{fill:#380A0A;}
	.st20{fill:#A6720A;}
	.st21{fill:none;stroke:#380A0A;stroke-width:0.5304;stroke-miterlimit:10;}
	.st22{fill:#380A0A;stroke:#000000;stroke-width:0.5304;stroke-miterlimit:10;}
	.st23{fill:#B37B50;stroke:#380A0A;stroke-width:1.3576;stroke-miterlimit:10;}
	.st24{fill:#A6720A;stroke:#380A0A;stroke-width:2;stroke-linejoin:round;stroke-miterlimit:10;}
	.st25{fill:#A6720A;stroke:#380A0A;stroke-width:1.8889;stroke-linejoin:round;stroke-miterlimit:10;}
	.st26{fill:#A6720A;stroke:#380A0A;stroke-width:1.7778;stroke-linejoin:round;stroke-miterlimit:10;}
	.st27{fill:#A6720A;stroke:#380A0A;stroke-width:1.6667;stroke-linejoin:round;stroke-miterlimit:10;}
	.st28{fill:#A6720A;stroke:#380A0A;stroke-width:1.5556;stroke-linejoin:round;stroke-miterlimit:10;}
	.st29{fill:#A6720A;stroke:#380A0A;stroke-width:1.4444;stroke-linejoin:round;stroke-miterlimit:10;}
	.st30{fill:#A6720A;stroke:#380A0A;stroke-width:1.3333;stroke-linejoin:round;stroke-miterlimit:10;}
	.st31{fill:#A6720A;stroke:#380A0A;stroke-width:1.1111;stroke-linejoin:round;stroke-miterlimit:10;}
	.st32{fill:#A6720A;stroke:#380A0A;stroke-linejoin:round;stroke-miterlimit:10;}
	.st33{fill:#A6720A;stroke:#380A0A;stroke-width:0.7778;stroke-linejoin:round;stroke-miterlimit:10;}
	.st34{fill:#A6720A;stroke:#380A0A;stroke-width:0.3333;stroke-linejoin:round;stroke-miterlimit:10;}
	.st35{fill:#2C0078;stroke:#A6720A;stroke-width:2.2221;stroke-miterlimit:10;}
	.st36{opacity:0;fill:none;stroke:#EDA514;stroke-width:3;stroke-miterlimit:10;}
	.st37{fill:url(#BackgroundHorizontal_2_);}
	.st38{fill:none;stroke:#A6720A;stroke-width:2.0268;stroke-miterlimit:10;}
	.st39{opacity:0;fill:none;stroke:#EDA514;stroke-width:2.7363;stroke-miterlimit:10;}
	.st40{fill:none;stroke:#370003;stroke-width:0.5304;stroke-miterlimit:10;}
	.st41{fill:#8F853F;}
	.st42{fill:none;stroke:#370003;stroke-width:2.0268;stroke-miterlimit:10;}
	.st43{fill:none;stroke:#852C08;stroke-miterlimit:10;}
	.st44{fill:#852D09;}
	.st45{fill:#B35095;}
	.st46{fill:none;stroke:#380A0A;stroke-width:0.4744;stroke-miterlimit:10;}
	.st47{fill:#380A0A;stroke:#000000;stroke-width:0.4744;stroke-miterlimit:10;}
	.st48{fill:#998F40;}
	.st49{fill:url(#BackgroundHorizontal_3_);}
</style>
<g id="CtmLogoBase">
</g>
<g id="TwitterOld">
</g>
<g id="Twitter">
</g>
<g id="Monies">
	<g id="InLineExtend" class="st6">
		<g id="Cam_5_">
			<g>
				<g>
					<path class="st1" d="M89.16,230.6c0.79,3.04,1.31,6.15,1.23,9.3c-0.03,1.37-0.18,2.73-0.43,4.07c-0.02,0.11-0.2,0.88-0.35,1.42
						c-0.17,0.6-0.37,1.19-0.59,1.77c-0.1,0.27-0.21,0.54-0.33,0.81c0.26-0.61-0.1,0.21-0.17,0.35c-0.27,0.54-0.55,1.07-0.86,1.58
						c-0.08,0.13-0.17,0.27-0.25,0.4c-0.22,0.36,0.42-0.59,0.05-0.07c-0.15,0.2-0.28,0.41-0.43,0.62c-0.37,0.51-0.77,0.99-1.16,1.47
						c-0.33,0.41,0.13-0.15,0.17-0.19c-0.11,0.11-0.21,0.23-0.32,0.35c-0.19,0.21-0.39,0.41-0.58,0.61
						c-0.44,0.45-0.91,0.87-1.37,1.3c0.55-0.5,0.11-0.1-0.18,0.14c-0.22,0.18-0.45,0.36-0.67,0.54c-0.51,0.39-1.03,0.77-1.55,1.13
						c-0.21,0.15-0.43,0.29-0.64,0.43c0.72-0.48-0.22,0.13-0.36,0.22c-0.53,0.33-1.07,0.64-1.61,0.94c-1.07,0.6-2.17,1.15-3.28,1.66
						c-0.12,0.06-1.09,0.49-0.49,0.23c-0.25,0.11-0.49,0.21-0.74,0.32c-0.62,0.26-1.24,0.51-1.87,0.76c-1.19,0.46-2.4,0.89-3.61,1.3
						c-4.55,1.52-9.2,2.69-13.86,3.84c-3.47,0.86-7.04,1.64-10.33,3.07c-3.35,1.45-7.07,4.27-6.14,8.39
						c0.62,2.73,2.99,4.57,5.29,5.87c3.06,1.74,6.48,2.77,9.89,3.56c3.57,0.83,7.22,1.36,10.87,1.68c2.87,0.25,5.9,0.62,8.76,0.15
						c6.74-1.09,13.18-4.29,19.39-6.99c7.21-3.14,14.43-6.5,22.01-8.63c2.89-0.81,5.84-1.38,8.98-1.12
						c4.18,0.34,8.28,1.75,12.11,3.39c7.42,3.17,14.06,7.78,21.29,11.29c2.09,1.01,4.12,1.79,6.46,1.75
						c2.21-0.03,4.43-0.17,6.64-0.34c6.44-0.49,12.9-1.32,19.17-2.88c5.32-1.32,11.98-3.48,14.68-8.72
						c0.87-1.69,1.22-3.78,0.12-5.44c-0.69-1.05-1.84-1.7-2.93-2.26c-3.3-1.67-7.08-2.44-10.63-3.37c-4.68-1.23-9.37-2.5-13.87-4.32
						c-4.58-1.85-8.9-4.24-12.4-7.8c-3.78-3.85-5.95-8.73-6.57-14.1c-0.37-3.25-0.11-6.57,0.4-9.78c0.22-1.4-1.52-1.1-2.26-0.7
						c-1.23,0.66-2.35,1.94-2.57,3.35c-0.98,6.16-0.84,12.76,1.81,18.51c2.13,4.62,5.62,8.33,9.86,11.09
						c8.09,5.28,17.57,7.17,26.72,9.77c1.66,0.47,3.32,0.96,4.9,1.64c0.32,0.14,0.64,0.28,0.95,0.43c0.13,0.06,0.26,0.13,0.38,0.2
						c0.39,0.2-0.21-0.15,0.21,0.13c0.46,0.31,0.91,0.63,1.28,1.04c0.16,0.18,0.29,0.36,0.42,0.56c-0.29-0.45,0.02,0.12,0.09,0.34
						c0.03,0.11,0.05,0.21,0.07,0.32c0.04,0.22,0.03-0.22,0,0.21c-0.02,0.19-0.18,0.86,0.01,0.23c-0.08,0.28-0.38,0.81,0,0.14
						c-0.07,0.12-0.44,0.75-0.13,0.28c0.36-0.53-0.14,0.25-0.23,0.26c0.02,0,0.54-0.65,0.23-0.28c-0.06,0.07-0.15,0.16-0.22,0.22
						c-0.45,0.37,0.55-0.36,0.19-0.17c-0.14,0.08-0.26,0.21-0.39,0.31c-0.17,0.13-0.91,0.58-0.17,0.14
						c-0.24,0.14-0.48,0.29-0.72,0.43c-0.25,0.14-0.51,0.28-0.77,0.41c-0.17,0.08-1.04,0.48-0.51,0.25
						c-5.64,2.45-11.69,3.33-17.76,4.07c-2.87,0.35-5.76,0.62-8.64,0.8c-1.86,0.12-3.8,0.33-5.66,0.2c0.46,0.03-0.32-0.06-0.42-0.09
						c-0.22-0.05-0.44-0.1-0.66-0.16c-0.63-0.18-1.24-0.41-1.84-0.66c-1.39-0.58-2.74-1.28-4.07-2c-3.41-1.84-6.73-3.84-10.12-5.7
						c-7.21-3.95-15.24-7.95-23.66-7.88c-3.16,0.03-6.32,0.83-9.33,1.74c-3.63,1.09-7.17,2.47-10.68,3.91
						c-7.18,2.96-14.2,6.34-21.48,9.05c-2.64,0.98-5.41,1.93-7.79,2.21c-2.78,0.32-5.73-0.02-8.49-0.31
						c-3.67-0.38-7.34-0.98-10.92-1.9c-3.11-0.8-6.39-1.81-9.08-3.62c-1.09-0.73-2.15-1.62-2.86-2.73
						c-0.18-0.28-0.41-0.78-0.54-1.22c-0.08-0.26-0.14-0.53-0.18-0.81c-0.03-0.2,0.06-0.1-0.01-0.39c-0.11-0.5-0.16,0.45,0.01-0.02
						c0.08-0.21-0.36,0.74-0.12,0.3c0.21-0.38-0.55,0.77-0.17,0.28c0.24-0.31-0.67,0.74-0.3,0.36c0.42-0.43-0.38,0.29-0.31,0.26
						c0.1-0.05,0.19-0.15,0.28-0.22c0.51-0.38-0.5,0.27-0.2,0.12c0.25-0.12,0.48-0.28,0.73-0.41c0.13-0.07,0.28-0.13,0.41-0.2
						c0.4-0.21-0.68,0.27,0.03-0.01c0.67-0.27,1.35-0.52,2.04-0.75c1.76-0.58,3.55-1.05,5.34-1.51c9.38-2.4,18.98-4.51,27.53-9.24
						c4.62-2.55,8.96-5.92,12.04-10.26c3.18-4.49,4.9-9.78,4.86-15.29c-0.02-3.15-0.52-6.29-1.32-9.34
						C93.35,224.89,88.63,228.58,89.16,230.6L89.16,230.6z"/>
				</g>
			</g>
			<g id="LogoBase_24_">
				<g id="Ring1_152_">
					<g>
						<path class="st1" d="M27.96,131.98c0.02-10.34,1.57-20.55,4.76-30.35c1.59-4.88,3.3-9.01,5.52-13.38
							c1.14-2.26,2.37-4.47,3.69-6.63c0.28-0.47,0.57-0.94,0.86-1.4c0.18-0.28,0.35-0.56,0.53-0.83c0.37-0.59,0.12-0.18,0.04-0.06
							c0.72-1.1,1.46-2.18,2.23-3.25c1.46-2.04,3-4.03,4.61-5.96c0.35-0.42,0.71-0.83,1.06-1.25c0.71-0.83-0.53,0.58,0.21-0.23
							c0.22-0.24,0.44-0.49,0.66-0.73c0.81-0.89,1.63-1.77,2.46-2.63c1.75-1.8,3.57-3.52,5.44-5.2c0.81-0.73-0.6,0.51,0.23-0.21
							c0.17-0.14,0.33-0.28,0.5-0.43c0.5-0.42,1-0.85,1.51-1.26c1.01-0.83,2.05-1.64,3.09-2.43c0.87-0.66,1.76-1.3,2.65-1.93
							c0.54-0.38,1.08-0.75,1.62-1.12c0.23-0.15,0.46-0.3,0.68-0.46c0.14-0.09,0.27-0.18,0.41-0.27c-0.31,0.2-0.29,0.19,0.06-0.04
							c2.13-1.36,4.3-2.65,6.52-3.85c4.52-2.44,8.39-4.17,13.19-5.88c19.32-6.88,40.73-7.44,60.45-1.66
							c19.06,5.58,36.11,16.95,48.71,32.29c12.68,15.44,20.56,34.76,22.09,54.7c0.79,10.33,0.02,20.92-2.44,30.93
							c-2.42,9.86-6.03,18.55-11.23,27.13c-0.31,0.52-0.63,1.03-0.95,1.54c-0.15,0.23-0.29,0.46-0.44,0.69
							c-0.58,0.91,0.38-0.57-0.22,0.33c-0.73,1.09-1.47,2.18-2.24,3.24c-1.41,1.95-2.88,3.85-4.42,5.7c-0.42,0.5-0.85,1-1.27,1.5
							c0.49-0.57,0.11-0.13,0.01-0.01c-0.22,0.24-0.44,0.49-0.66,0.73c-0.88,0.97-1.78,1.93-2.69,2.86
							c-1.68,1.72-3.43,3.36-5.22,4.97c-0.81,0.73,0.6-0.51-0.23,0.21c-0.25,0.21-0.5,0.43-0.75,0.64c-0.42,0.35-0.84,0.7-1.26,1.05
							c-1.01,0.83-2.05,1.64-3.09,2.43c-0.96,0.73-1.93,1.43-2.92,2.12c-0.45,0.31-0.9,0.62-1.35,0.93
							c-0.27,0.18-0.55,0.37-0.82,0.55c-0.35,0.23-0.37,0.24-0.06,0.04c-0.18,0.12-0.37,0.24-0.55,0.36
							c-4.17,2.66-8.54,5.03-13.07,7.04c0.41-0.18-0.23,0.1-0.32,0.14c-0.25,0.11-0.51,0.22-0.76,0.33
							c-0.61,0.26-1.23,0.51-1.85,0.76c-1.14,0.45-2.28,0.88-3.43,1.29c-2.42,0.86-4.88,1.63-7.36,2.31
							c-4.83,1.31-9.71,2.21-14.72,2.75c-10.4,1.12-20.93,0.61-31.16-1.57c-19.45-4.15-37.32-14.19-51.03-28.59
							c-13.84-14.53-23.01-33.1-26.11-52.93C28.34,142.01,27.97,137.01,27.96,131.98c0-1.66-1.67-1.45-2.77-0.86
							c-1.31,0.7-3.16,2.45-3.15,4.1c0.04,21.18,6.58,41.89,18.91,59.13c11.86,16.58,28.79,29.36,47.96,36.27
							c20.23,7.29,42.68,7.81,63.3,1.77c20.36-5.96,38.51-18.33,51.98-34.66c13.51-16.39,21.87-36.87,23.48-58.06
							c1.61-21.15-3.46-42.4-14.46-60.52c-10.63-17.52-26.62-31.51-45.33-39.85c-19.37-8.64-41.46-10.87-62.2-6.47
							c-20.77,4.4-39.92,15.2-54.54,30.6c-14.68,15.47-24.59,35.1-27.89,56.2c-0.81,5.15-1.2,10.36-1.21,15.58
							c0,1.66,1.68,1.45,2.77,0.86C26.12,135.38,27.96,133.64,27.96,131.98z"/>
					</g>
				</g>
				<g id="Ring2_88_">
					<g>
						<path class="st1" d="M65.76,132.2c0.02-6.27,0.93-12.5,2.87-18.47c0.92-2.85,2-5.5,3.32-8.11c1.4-2.78,2.87-5.2,4.51-7.49
							c3.46-4.83,7.25-8.71,11.88-12.2c4.54-3.42,9.77-6.25,15.36-8.22c11.81-4.15,24.84-4.42,36.84-0.89
							c11.72,3.44,22.17,10.43,29.93,19.86c7.79,9.48,12.64,21.35,13.59,33.6c0.96,12.42-1.92,24.92-8.33,35.48
							c-0.79,1.31-1.25,2-2.19,3.31c-0.89,1.24-1.83,2.45-2.81,3.63c-0.15,0.18-0.66,0.77-0.57,0.67c0.11-0.13-0.47,0.53-0.59,0.65
							c-0.51,0.56-1.04,1.12-1.57,1.67c-1.07,1.09-2.17,2.15-3.32,3.15c0.38-0.33-0.23,0.19-0.34,0.29
							c-0.29,0.25-0.59,0.49-0.88,0.73c-0.59,0.48-1.2,0.95-1.81,1.41c-0.61,0.46-1.23,0.91-1.86,1.35
							c-0.27,0.19-0.54,0.37-0.81,0.56c-0.47,0.32-0.23,0.16-0.71,0.47c-2.43,1.54-5.15,3.02-7.65,4.14
							c-11.44,5.12-24.53,6.35-36.76,3.72c-11.99-2.57-22.98-8.78-31.42-17.67c-8.47-8.93-14.07-20.3-15.98-32.46
							C65.99,138.34,65.77,135.28,65.76,132.2c0-1.44-1.45-1.26-2.4-0.75c-1.13,0.61-2.74,2.13-2.73,3.56
							c0.04,13.17,4.06,26,11.71,36.73c7.38,10.36,17.97,18.33,29.95,22.6c12.64,4.52,26.66,4.77,39.51,0.96
							c12.82-3.81,24.22-11.68,32.68-21.98c8.41-10.23,13.66-23.01,14.69-36.22c1.03-13.22-2.12-26.46-8.99-37.78
							c-6.6-10.88-16.54-19.54-28.15-24.71c-12.16-5.42-25.97-6.71-38.96-3.92c-12.97,2.78-24.94,9.64-34.06,19.25
							c-9.26,9.76-15.53,22.09-17.62,35.4c-0.5,3.21-0.75,6.44-0.75,9.69c0,1.44,1.45,1.25,2.4,0.75
							C64.17,135.14,65.76,133.63,65.76,132.2z"/>
					</g>
				</g>
				<g id="Ring3_87_">
					<g>
						<path class="st1" d="M89.17,132.31c0.03-7.33,2.24-14.77,6.4-20.54c1.17-1.62,1.98-2.59,3.25-3.88
							c1.4-1.42,2.22-2.14,3.82-3.33c2.68-2,5.87-3.7,9.22-4.85c14.56-4.99,30.99,0.05,40.65,11.91
							c9.56,11.73,11.09,28.82,3.24,41.84c-1.72,2.86-3.95,5.47-6.4,7.61c-2.43,2.12-5.36,4.01-8.57,5.42
							c-6.99,3.05-14.94,3.73-22.37,2.07c-14.78-3.3-26.34-15.57-28.78-30.52C89.32,136.14,89.18,134.23,89.17,132.31
							c-0.01-1.33-1.34-1.16-2.21-0.69c-1.04,0.56-2.53,1.96-2.52,3.28c0.07,16.56,10.53,31.66,26.26,37.12
							c16.45,5.71,34.56-0.5,45.42-13.72c10.81-13.15,12.55-32.05,3.65-46.66c-4.11-6.75-10.31-12.09-17.53-15.3
							c-7.73-3.43-16.45-4.12-24.68-2.31c-16.59,3.66-29.9,17.96-32.62,34.67c-0.33,2.05-0.49,4.12-0.5,6.2
							c-0.01,1.33,1.34,1.16,2.21,0.69C87.7,135.02,89.16,133.63,89.17,132.31z"/>
					</g>
				</g>
				<g id="Ring4_86_">
					<circle class="st1" cx="125" cy="133.6" r="14.65"/>
				</g>
			</g>
		</g>
	</g>
</g>
<g id="Texts">
</g>
<g id="LandingPageAndArtOld">
	<g id="LandingV2Sim">
	</g>
	<g id="LandingPageOld_1_">
	</g>
</g>
<g id="CtmSiteLandingPoster">
</g>
<g id="P3">
</g>
<g id="LandingArtOld">
</g>
<g id="LogoBaseRobiconFull">
</g>
<g id="LogobaseRobicon">
</g>
<g id="Safe">
</g>
</svg>
