<?xml version="1.0" encoding="utf-8"?>
<!-- Generator: Adobe Adobe Illustrator 24.2.0, SVG Export Plug-In . SVG Version: 6.00 Build 0)  -->
<svg version="1.1" xmlns="http://www.w3.org/2000/svg" xmlns:xlink="http://www.w3.org/1999/xlink" x="0px" y="0px"
	 viewBox="0 0 250 320" style="enable-background:new 0 0 250 320;" xml:space="preserve">
<style type="text/css">
	.st0{fill:#2C0078;}
	.st1{fill:#EDA514;}
	.st2{fill:#2C0078;stroke:#380A0A;stroke-width:0.8291;stroke-miterlimit:10;}
	.st3{fill:url(#SVGID_1_);}
	.st4{fill:url(#SVGID_2_);}
	.st5{fill:#370003;}
	.st6{opacity:0.8902;}
	.st7{fill:none;stroke:#370003;stroke-width:0.4087;stroke-miterlimit:10;}
	.st8{fill:none;stroke:#370003;stroke-width:0.3001;stroke-miterlimit:10;}
	.st9{fill:none;stroke:#A6720A;stroke-linejoin:round;stroke-miterlimit:10;}
	.st10{fill:none;stroke:#A6720A;stroke-miterlimit:10;}
	.st11{fill:url(#SVGID_3_);stroke:#000000;stroke-miterlimit:10;}
	.st12{fill:url(#SVGID_4_);stroke:#000000;stroke-miterlimit:10;}
	.st13{fill:url(#SVGID_5_);stroke:#000000;stroke-miterlimit:10;}
	.st14{fill:url(#SVGID_6_);stroke:#000000;stroke-miterlimit:10;}
	.st15{fill:url(#SVGID_7_);}
	.st16{fill:url(#SVGID_8_);}
	.st17{display:none;}
	.st18{display:inline;}
	.st19{fill:#292E6E;}
	.st20{fill:#FFFFFF;}
	.st21{fill:none;stroke:#FFFFFF;stroke-width:2;stroke-miterlimit:10;}
	.st22{fill:none;stroke:#FFFFFF;stroke-width:3.7156;stroke-miterlimit:10;}
	.st23{fill:#C9C9C9;}
	.st24{opacity:0.502;fill:none;stroke:#FFFFFF;stroke-width:2;stroke-miterlimit:10;}
	.st25{fill:none;stroke:#FFFFFF;stroke-width:4;stroke-miterlimit:10;}
	.st26{fill:none;stroke:#FFFFFF;stroke-width:2.4957;stroke-miterlimit:10;}
	.st27{fill:none;stroke:#FFFFFF;stroke-width:3.5467;stroke-miterlimit:10;}
	.st28{opacity:0.8392;}
	.st29{fill:none;stroke:#370003;stroke-width:1.3433;stroke-miterlimit:10;}
	.st30{fill:none;stroke:#370003;stroke-width:0.6678;stroke-miterlimit:10;}
	.st31{fill:none;stroke:#370003;stroke-width:0.7451;stroke-miterlimit:10;}
	.st32{fill:none;stroke:#EDA514;stroke-miterlimit:10;}
	.st33{fill:none;stroke:#EDA514;stroke-width:0.618;stroke-miterlimit:10;}
	.st34{fill:none;stroke:#EDA514;stroke-width:0.382;stroke-miterlimit:10;}
	.st35{fill:none;stroke:#EDA514;stroke-width:0.2361;stroke-miterlimit:10;}
	.st36{display:none;fill:#2C0078;}
	.st37{fill:#B37B50;}
	.st38{fill:#380A0A;}
	.st39{fill:#A6720A;}
	.st40{fill:none;stroke:#380A0A;stroke-width:0.5304;stroke-miterlimit:10;}
	.st41{fill:#380A0A;stroke:#000000;stroke-width:0.5304;stroke-miterlimit:10;}
	.st42{fill:#B37B50;stroke:#380A0A;stroke-width:1.3576;stroke-miterlimit:10;}
	.st43{fill:#A6720A;stroke:#380A0A;stroke-width:2;stroke-linejoin:round;stroke-miterlimit:10;}
	.st44{fill:#A6720A;stroke:#380A0A;stroke-width:1.8889;stroke-linejoin:round;stroke-miterlimit:10;}
	.st45{fill:#A6720A;stroke:#380A0A;stroke-width:1.7778;stroke-linejoin:round;stroke-miterlimit:10;}
	.st46{fill:#A6720A;stroke:#380A0A;stroke-width:1.6667;stroke-linejoin:round;stroke-miterlimit:10;}
	.st47{fill:#A6720A;stroke:#380A0A;stroke-width:1.5556;stroke-linejoin:round;stroke-miterlimit:10;}
	.st48{fill:#A6720A;stroke:#380A0A;stroke-width:1.4444;stroke-linejoin:round;stroke-miterlimit:10;}
	.st49{fill:#A6720A;stroke:#380A0A;stroke-width:1.3333;stroke-linejoin:round;stroke-miterlimit:10;}
	.st50{fill:#A6720A;stroke:#380A0A;stroke-width:1.1111;stroke-linejoin:round;stroke-miterlimit:10;}
	.st51{fill:#A6720A;stroke:#380A0A;stroke-linejoin:round;stroke-miterlimit:10;}
	.st52{fill:#A6720A;stroke:#380A0A;stroke-width:0.7778;stroke-linejoin:round;stroke-miterlimit:10;}
	.st53{fill:#A6720A;stroke:#380A0A;stroke-width:0.3333;stroke-linejoin:round;stroke-miterlimit:10;}
	.st54{fill:#2C0078;stroke:#A6720A;stroke-width:2.2221;stroke-miterlimit:10;}
	.st55{opacity:0;fill:none;stroke:#EDA514;stroke-width:3;stroke-miterlimit:10;}
	.st56{fill:url(#BackgroundHorizontal_2_);}
	.st57{fill:none;stroke:#A6720A;stroke-width:2.0268;stroke-miterlimit:10;}
	.st58{opacity:0;fill:none;stroke:#EDA514;stroke-width:2.7363;stroke-miterlimit:10;}
	.st59{fill:none;stroke:#370003;stroke-width:0.5304;stroke-miterlimit:10;}
	.st60{fill:#8F853F;}
	.st61{fill:none;stroke:#370003;stroke-width:2.0268;stroke-miterlimit:10;}
	.st62{fill:none;stroke:#852C08;stroke-miterlimit:10;}
	.st63{fill:#852D09;}
	.st64{fill:#B35095;}
	.st65{fill:none;stroke:#380A0A;stroke-width:0.4744;stroke-miterlimit:10;}
	.st66{fill:#380A0A;stroke:#000000;stroke-width:0.4744;stroke-miterlimit:10;}
	.st67{fill:#998F40;}
	.st68{fill:url(#BackgroundHorizontal_3_);}
	.st69{fill:#3453CF;}
</style>
<g id="CtmLogoBase">
</g>
<g id="TwitterOld">
</g>
<g id="Twitter">
</g>
<g id="General">
</g>
<g id="App">
</g>
<g id="Monies">
	<g id="InLineExtendBold" class="st6">
		<g id="Lock_25_">
			<g>
				<g>
					<g>
						<path class="st1" d="M81.06,107.94c3.97-15.62,4.16-31.91,6.81-47.76c0.32-1.92,0.68-3.84,1.08-5.75
							c-0.2,0.97,0.14-0.62,0.2-0.88c0.1-0.42,0.2-0.84,0.3-1.26c0.24-1,0.5-1.99,0.78-2.98c0.49-1.76,1.04-3.51,1.67-5.24
							c0.3-0.84,0.63-1.67,0.97-2.49c0.09-0.22,0.19-0.44,0.28-0.66c0.27-0.64-0.13,0.28-0.15,0.33c0.17-0.51,0.47-1.02,0.7-1.5
							c0.34-0.7,0.7-1.39,1.08-2.08c0.22-0.4,0.46-0.81,0.69-1.2c0.1-0.16,0.2-0.33,0.3-0.49c0.25-0.4,0.81-0.86-0.11,0.15
							c0.54-0.59,0.95-1.4,1.44-2.04c0.23-0.3,0.46-0.59,0.7-0.89c0.14-0.17,0.29-0.34,0.43-0.52c0.57-0.7-0.96,1.04-0.21,0.24
							c0.54-0.57,1.08-1.14,1.65-1.68c0.16-0.15,0.33-0.3,0.49-0.46c0.67-0.64-1.05,0.86-0.33,0.28c0.35-0.28,0.69-0.58,1.05-0.85
							c0.3-0.23,0.6-0.46,0.91-0.68c0.19-0.13,0.38-0.26,0.56-0.39c0.73-0.53-1.03,0.62-0.25,0.16c0.74-0.44,1.46-0.88,2.22-1.27
							c0.38-0.2,0.86-0.54,1.28-0.62c-0.93,0.18-0.6,0.25-0.22,0.1c0.19-0.08,0.37-0.16,0.56-0.23c0.93-0.37,1.87-0.7,2.83-0.98
							c0.41-0.12,0.83-0.24,1.24-0.35c0.25-0.07,0.51-0.13,0.76-0.19c0.17-0.04,1.05-0.22,0.13-0.03c0.99-0.2,1.99-0.37,2.99-0.5
							c2.27-0.29,4.55-0.41,6.84-0.38c0.98,0.01,1.96,0.06,2.94,0.12c0.53,0.04-0.69-0.07,0.17,0.01c0.27,0.03,0.54,0.05,0.8,0.08
							c0.53,0.06,1.05,0.13,1.58,0.21c3.65,0.55,7.23,1.6,10.56,3.2c1.79,0.86,2.38,1.19,4.09,2.37c1.4,0.96,2.74,2.03,3.99,3.18
							c2.53,2.32,4.75,4.98,6.67,7.82c0.48,0.71,0.94,1.43,1.38,2.16c0.1,0.17,0.63,1.07,0.37,0.62c0.24,0.41,0.47,0.82,0.69,1.24
							c0.88,1.62,1.68,3.27,2.42,4.96c2.97,6.75,4.96,13.9,6.46,21.11c2.71,12.95,3.49,26.13,5.39,39.19
							c0.16,1.1,0.34,2.2,0.54,3.29c0.15,0.78,1.06,1.04,1.72,1.01c1-0.05,2.17-0.71,2.93-1.3c1.58-1.25,3.53-3.38,3.11-5.58
							c-1.02-5.48-1.5-11.05-2.11-16.58c-0.8-7.19-1.67-14.37-2.96-21.49c-2.62-14.41-6.89-29.86-16.98-40.95
							c-4.91-5.39-11.33-9.37-18.39-11.2c-8.36-2.16-17.85-1.94-26.04,0.85c-7.91,2.69-14.79,8.12-19.46,15.03
							c-4.56,6.76-7.32,14.43-9.09,22.34c-3.63,16.23-3.82,32.96-6.94,49.26c-0.08,0.44-0.17,0.88-0.26,1.33
							c-0.05,0.24-0.1,0.48-0.15,0.72c0.19-0.9,0.07-0.31,0.02-0.08c-0.2,0.89-0.41,1.78-0.63,2.66c-0.18,0.71-0.39,1.68,0.21,2.29
							c0.57,0.57,1.62,0.45,2.29,0.21C78.1,112.22,80.5,110.13,81.06,107.94L81.06,107.94z"/>
					</g>
				</g>
				<g>
					<g>
						<path class="st1" d="M112.04,96.98c0-10.09,0.14-20.22,1.3-30.25c0.29-2.55,0.66-5.09,1.14-7.61
							c0.09-0.48,0.19-0.96,0.29-1.44c-0.18,0.87,0.02-0.08,0.05-0.21c0.06-0.28,0.13-0.55,0.19-0.83c0.28-1.15,0.58-2.29,0.93-3.42
							c0.28-0.89,0.58-1.78,0.92-2.65c0.09-0.23,0.18-0.45,0.27-0.68c0.14-0.35,0.18-0.97-0.06,0.12c0.11-0.48,0.47-1.01,0.7-1.44
							c0.2-0.39,0.43-0.76,0.65-1.14c0.26-0.45,0.63-0.54-0.21,0.31c0.14-0.14,0.24-0.35,0.35-0.5c0.19-0.26,0.44-0.51,0.61-0.78
							c-0.8,1.25-0.73,0.79-0.36,0.43c0.18-0.18,0.36-0.35,0.53-0.53c0.58-0.59-1.12,0.87-0.45,0.4c0.14-0.1,0.29-0.21,0.43-0.33
							c0.6-0.49-1.11,0.63-0.43,0.28c0.15-0.08,0.31-0.17,0.46-0.26c0.83-0.48-1.04,0.36,0.13-0.04c0.16-0.06,0.34-0.09,0.5-0.15
							c0.6-0.22-0.86,0.11-0.22,0.04c0.36-0.04,0.71-0.1,1.08-0.12c0.26-0.01,1.48,0.09,0.53-0.03c0.78,0.1,1.54,0.24,2.29,0.5
							c0.31,0.11,0.61,0.23,0.91,0.37c0.19,0.09,1.08,0.63,0.43,0.2c0.68,0.44,1.32,0.9,1.92,1.44c1.2,1.09,2.22,2.38,3.09,3.75
							c0.12,0.18,0.23,0.37,0.35,0.56c0.05,0.07,0.41,0.72,0.11,0.17c0.22,0.4,0.44,0.8,0.65,1.21c0.43,0.85,0.83,1.72,1.19,2.61
							c0.82,1.99,1.51,4.03,2.1,6.1c1.24,4.33,2.08,8.78,2.73,13.23c0.37,2.54,0.67,5.09,0.92,7.64c0.06,0.65,0.12,1.29,0.18,1.94
							c-0.06-0.65,0.02,0.25,0.03,0.32c0.03,0.36,0.06,0.72,0.08,1.08c0.09,1.14,0.16,2.28,0.23,3.42
							c0.23,3.99,0.36,7.99,0.36,11.98c0,2.19,2.24,1.98,3.69,1.15c1.74-0.99,4.2-3.23,4.2-5.47c0-8.43-0.49-16.88-1.55-25.24
							c-1.13-8.94-2.77-18.44-7.31-26.35c-1.81-3.14-4.08-5.89-7.42-7.47c-3.48-1.65-7.67-1.19-10.95,0.7
							c-8.95,5.14-11.81,16.21-13.36,25.67c-1.74,10.6-1.98,21.42-2.03,32.13c-0.01,1.17-0.01,2.34-0.01,3.51
							c0,2.19,2.24,1.98,3.69,1.15C109.57,101.46,112.04,99.22,112.04,96.98L112.04,96.98z"/>
					</g>
				</g>
			</g>
			<g id="LogoBase_65_">
				<g id="Ring1_249_">
					<g>
						<path class="st1" d="M28.95,199.4c0.01-5.33,0.42-10.65,1.26-15.92c0.18-1.12,0.38-2.24,0.6-3.36c0.07-0.33,0.13-0.67,0.2-1
							c0.22-1.1-0.16,0.67,0.09-0.42c0.15-0.66,0.3-1.32,0.46-1.98c0.61-2.51,1.31-4.99,2.11-7.45c0.76-2.33,1.6-4.63,2.53-6.89
							c0.25-0.62,0.52-1.23,0.78-1.84c0.42-0.99-0.26,0.54,0.03-0.07c0.12-0.25,0.23-0.5,0.34-0.76c0.55-1.2,1.13-2.4,1.73-3.58
							c1.14-2.26,2.37-4.47,3.69-6.63c0.28-0.47,0.57-0.94,0.86-1.4c0.18-0.28,0.35-0.56,0.53-0.83c0.45-0.71-0.07,0.09-0.13,0.2
							c0.62-1.14,1.48-2.2,2.23-3.25c1.46-2.04,3-4.03,4.61-5.96c0.35-0.42,0.71-0.83,1.06-1.25c0.76-0.89-0.8,0.89-0.01,0.02
							c0.22-0.24,0.44-0.49,0.66-0.73c0.81-0.89,1.63-1.77,2.46-2.63c1.75-1.8,3.58-3.52,5.44-5.2c0.87-0.78-0.91,0.77-0.02,0.01
							c0.17-0.14,0.33-0.28,0.5-0.43c0.5-0.42,1-0.85,1.51-1.26c1.01-0.83,2.05-1.64,3.09-2.43c0.87-0.66,1.76-1.3,2.65-1.93
							c0.54-0.38,1.08-0.75,1.62-1.12c0.23-0.15,0.46-0.3,0.68-0.46c1.02-0.69-0.6,0.37,0.22-0.14c2.13-1.35,4.3-2.65,6.52-3.85
							c2.14-1.16,4.32-2.22,6.52-3.23c1.02-0.47-0.81,0.34,0.22-0.1c0.31-0.13,0.61-0.26,0.92-0.39c0.51-0.22,1.02-0.43,1.54-0.63
							c1.24-0.5,2.49-0.97,3.74-1.42c2.37-0.84,4.77-1.6,7.2-2.26c1.14-0.31,2.29-0.6,3.44-0.87c0.33-0.08,0.66-0.15,0.99-0.23
							c0.05-0.01,1.14-0.24,0.42-0.09c0.67-0.14,1.33-0.27,2-0.4c5.09-0.96,10.26-1.52,15.44-1.68c10.36-0.32,20.47,0.95,30.54,3.9
							c19.03,5.58,35.96,16.86,48.56,32.2c6.28,7.65,11.31,16.06,15.03,25.22c1.89,4.66,3.43,9.47,4.6,14.36
							c1.14,4.8,2.01,10.15,2.36,14.78c0.4,5.3,0.39,10.62-0.04,15.92c-0.21,2.58-0.52,5.14-0.93,7.7c-0.2,1.24-0.42,2.47-0.66,3.7
							c-0.07,0.33-0.13,0.67-0.2,1c0.03-0.15,0.14-0.61-0.02,0.09c-0.17,0.77-0.35,1.54-0.54,2.31c-1.2,4.88-2.77,9.67-4.69,14.32
							c-0.21,0.51-0.43,1.02-0.65,1.53c-0.44,1.03,0.37-0.8-0.1,0.22c-0.14,0.3-0.27,0.6-0.41,0.91c-0.51,1.1-1.04,2.19-1.59,3.28
							c-1.14,2.26-2.37,4.47-3.69,6.63c-0.31,0.52-0.63,1.03-0.95,1.54c-0.15,0.23-0.29,0.46-0.44,0.69
							c-0.61,0.97,0.59-0.87-0.05,0.08c-0.73,1.09-1.47,2.18-2.24,3.24c-1.41,1.95-2.88,3.85-4.42,5.7
							c-0.39,0.46-0.99,0.96-1.27,1.5c0.44-0.83,0.53-0.6,0.23-0.26c-0.22,0.24-0.44,0.49-0.66,0.73c-0.88,0.97-1.78,1.93-2.69,2.86
							c-1.68,1.72-3.43,3.36-5.22,4.97c-0.87,0.78,0.91-0.77,0.02-0.01c-0.25,0.21-0.5,0.43-0.75,0.64
							c-0.42,0.35-0.84,0.7-1.26,1.05c-1.01,0.83-2.05,1.64-3.09,2.43c-0.96,0.73-1.93,1.43-2.92,2.12
							c-0.45,0.31-0.9,0.62-1.35,0.93c-0.27,0.18-0.55,0.36-0.82,0.55c-0.43,0.28-0.37,0.24,0.2-0.13
							c-0.18,0.12-0.37,0.24-0.55,0.36c-4.18,2.67-8.55,5.02-13.07,7.04c0.96-0.43-0.64,0.27-0.84,0.35
							c-0.61,0.26-1.23,0.51-1.85,0.76c-1.14,0.45-2.28,0.88-3.43,1.3c-2.42,0.86-4.88,1.63-7.36,2.31c-1.2,0.32-2.4,0.63-3.61,0.9
							c-0.33,0.08-0.66,0.15-0.99,0.22c-0.1,0.02-0.67,0.14-0.09,0.02c-0.78,0.16-1.56,0.32-2.34,0.46
							c-2.47,0.46-4.97,0.82-7.47,1.09c-10.51,1.13-20.72,0.63-30.97-1.55c-19.45-4.15-37.18-14.11-50.89-28.51
							c-13.82-14.51-22.92-32.95-26.02-52.78C29.3,209.15,28.95,204.55,28.95,199.4c0-2.19-2.24-1.98-3.69-1.15
							c-1.73,0.99-4.21,3.23-4.2,5.47c0.04,21.31,6.6,42.12,19.01,59.48c11.89,16.62,28.89,29.43,48.11,36.36
							c20.37,7.34,42.97,7.82,63.72,1.74c20.76-6.08,39.23-18.76,52.95-35.41c13.67-16.58,22.17-37.34,23.8-58.79
							c1.62-21.29-3.49-42.62-14.56-60.87c-10.66-17.58-26.72-31.57-45.48-39.93c-19.43-8.66-41.6-10.89-62.4-6.49
							c-21.15,4.47-40.64,15.47-55.52,31.15c-14.95,15.75-25.07,35.69-28.43,57.18c-0.81,5.15-1.2,10.36-1.21,15.58
							c0,2.19,2.24,1.98,3.69,1.15C26.48,203.88,28.94,201.65,28.95,199.4z"/>
					</g>
				</g>
				<g id="Ring2_141_">
					<g>
						<path class="st1" d="M67.14,199.4c0.01-3.24,0.25-6.48,0.75-9.69c0.11-0.73,0.24-1.46,0.38-2.18
							c0.03-0.16,0.25-1.19,0.12-0.59c0.09-0.39,0.17-0.77,0.27-1.15c0.37-1.53,0.79-3.04,1.28-4.53c0.48-1.48,1.02-2.94,1.61-4.39
							c0.13-0.31,0.26-0.61,0.39-0.92c0.05-0.12,0.35-0.77,0.11-0.26c-0.22,0.48,0.02-0.03,0.05-0.11c0.33-0.7,0.66-1.4,1-2.09
							c0.69-1.37,1.44-2.72,2.23-4.04c0.2-0.33,0.4-0.66,0.6-0.98c0.18-0.29,0.62-1.3,0.14-0.22c0.3-0.66,0.88-1.31,1.3-1.89
							c0.89-1.24,1.83-2.45,2.81-3.63c0.13-0.16,0.61-0.55,0.64-0.75c-0.01,0.07-0.85,0.95-0.23,0.26c0.11-0.12,0.22-0.24,0.33-0.37
							c0.51-0.57,1.04-1.12,1.57-1.67c1.07-1.1,2.19-2.13,3.31-3.16c0.41-0.38-0.39,0.34-0.39,0.34c0.09-0.01,0.4-0.34,0.5-0.43
							c0.25-0.21,0.5-0.42,0.76-0.63c0.63-0.52,1.28-1.02,1.93-1.52c0.57-0.43,1.14-0.85,1.72-1.25c0.31-0.22,0.63-0.43,0.95-0.65
							c0.13-0.09,0.27-0.21,0.41-0.27c-0.25,0.11-0.71,0.46-0.2,0.13c1.3-0.82,2.62-1.61,3.97-2.34c0.68-0.37,1.36-0.72,2.06-1.06
							c0.3-0.15,0.6-0.29,0.89-0.43c0.3-0.14,1.34-0.61,0.52-0.25c1.42-0.62,2.87-1.2,4.34-1.71c1.42-0.5,2.87-0.95,4.33-1.34
							c0.76-0.21,1.53-0.4,2.29-0.57c0.17-0.04,0.33-0.08,0.5-0.11c-0.07,0.01-0.49,0.1-0.08,0.02c0.44-0.09,0.89-0.18,1.34-0.26
							c3.12-0.57,6.28-0.9,9.44-0.99c6.28-0.18,12.29,0.6,18.44,2.41c11.67,3.43,21.98,10.33,29.72,19.74
							c3.84,4.67,6.88,9.74,9.15,15.33c2.29,5.62,3.85,12.03,4.29,17.79c0.25,3.2,0.24,6.42-0.01,9.62c-0.13,1.6-0.31,3.2-0.56,4.79
							c-0.11,0.73-0.24,1.46-0.38,2.18c-0.03,0.17-0.25,1.17-0.12,0.59c-0.1,0.44-0.2,0.88-0.31,1.32
							c-0.73,2.98-1.68,5.91-2.85,8.76c-0.15,0.36-0.3,0.72-0.45,1.07c-0.03,0.08-0.27,0.59-0.05,0.11
							c0.23-0.51-0.07,0.14-0.12,0.26c-0.33,0.7-0.66,1.4-1.01,2.08c-0.7,1.37-1.45,2.72-2.24,4.03c-0.17,0.28-0.34,0.56-0.52,0.84
							c-0.12,0.19-0.24,0.37-0.35,0.55c-0.28,0.45,0.22-0.33,0.22-0.33c-0.29,0.66-0.88,1.3-1.3,1.89
							c-0.89,1.24-1.83,2.45-2.81,3.63c-0.15,0.18-0.94,1.1-0.41,0.49c0.56-0.64-0.32,0.35-0.43,0.48
							c-0.51,0.56-1.04,1.12-1.57,1.67c-0.5,0.51-1,1-1.51,1.49c-0.47,0.45-1.51,1.08-1.81,1.66c0,0.01,0.82-0.69,0.39-0.34
							c-0.13,0.1-0.25,0.21-0.37,0.32c-0.29,0.25-0.59,0.49-0.88,0.73c-0.59,0.48-1.2,0.95-1.81,1.41
							c-0.61,0.46-1.23,0.91-1.86,1.35c-0.27,0.19-0.54,0.37-0.81,0.56c-0.14,0.1-0.73,0.51-0.17,0.12
							c0.56-0.39-0.06,0.04-0.18,0.11c-1.3,0.82-2.62,1.6-3.98,2.33c-0.63,0.34-1.27,0.67-1.91,0.98c-0.35,0.17-0.69,0.34-1.04,0.5
							c-0.29,0.14-1.14,0.51-0.37,0.18c-2.86,1.25-5.81,2.29-8.82,3.1c-0.71,0.19-1.42,0.37-2.13,0.53
							c-0.17,0.04-0.33,0.08-0.5,0.11c0.59-0.13,0.02,0-0.09,0.02c-0.45,0.09-0.89,0.18-1.34,0.26c-1.52,0.27-3.05,0.49-4.59,0.65
							c-6.43,0.67-12.47,0.36-18.71-0.98c-11.97-2.57-22.79-8.68-31.21-17.55c-8.44-8.89-13.95-20.11-15.86-32.25
							C67.34,205.21,67.15,202.58,67.14,199.4c-0.01-2.18-2.24-1.98-3.69-1.15c-1.73,0.99-4.21,3.23-4.2,5.47
							c0.04,13.36,4.09,26.32,11.85,37.21c7.43,10.42,18.12,18.42,30.16,22.72c12.83,4.59,27.07,4.78,40.1,0.91
							c13.39-3.97,25.22-12.28,34.05-23.02c8.64-10.51,14.08-23.67,15.14-37.25c1.05-13.41-2.17-26.78-9.13-38.27
							c-6.64-10.96-16.67-19.63-28.36-24.83c-12.29-5.48-26.27-6.73-39.39-3.91c-13.43,2.88-25.84,10.02-35.28,19.98
							c-9.63,10.15-16.2,22.91-18.38,36.77c-0.5,3.21-0.75,6.44-0.75,9.69c-0.01,2.19,2.25,1.97,3.69,1.15
							C64.68,203.88,67.13,201.65,67.14,199.4z"/>
					</g>
				</g>
				<g id="Ring3_142_">
					<g>
						<path class="st1" d="M90.75,199.4c0.01-1.96,0.15-3.92,0.45-5.86c0.07-0.45,0.15-0.9,0.23-1.34c0.04-0.22,0.09-0.44,0.13-0.66
							c-0.13,0.59,0,0.03,0.03-0.08c0.25-0.97,0.5-1.95,0.81-2.9c0.27-0.84,0.57-1.68,0.91-2.5c0.08-0.2,0.17-0.41,0.25-0.61
							c0.4-0.99-0.28,0.53,0.03-0.07c0.22-0.44,0.42-0.89,0.64-1.34c0.4-0.78,0.82-1.55,1.27-2.3c0.22-0.37,0.43-0.77,0.69-1.11
							c-0.81,1.05,0.25-0.33,0.44-0.6c0.51-0.71,1.04-1.4,1.6-2.07c0.03-0.04,0.41-0.41,0.42-0.5c-0.06,0.4-0.68,0.76-0.23,0.27
							c0.37-0.4,0.74-0.8,1.12-1.19c0.3-0.31,0.61-0.61,0.93-0.91c0.23-0.22,0.85-0.6,0.96-0.88c-0.18,0.46-0.75,0.63-0.26,0.24
							c0.17-0.14,0.33-0.28,0.5-0.42c0.42-0.34,0.85-0.68,1.29-1c0.35-0.26,0.7-0.52,1.06-0.76c0.12-0.08,0.38-0.31,0.54-0.37
							c-0.76,0.26-0.54,0.34-0.2,0.13c0.84-0.52,1.68-1.02,2.55-1.48c0.39-0.21,0.78-0.4,1.17-0.6c0.26-0.12,1.36-0.62,0.51-0.25
							c0.92-0.39,1.84-0.76,2.78-1.08c0.84-0.29,1.7-0.55,2.56-0.78c0.43-0.12,0.87-0.22,1.31-0.32c-0.59,0.14-0.03,0,0.08-0.02
							c0.33-0.06,0.67-0.13,1-0.19c1.93-0.33,3.88-0.51,5.83-0.55c3.73-0.07,7.31,0.44,11.04,1.57c7.07,2.14,13.23,6.35,17.92,12.1
							c2.32,2.85,4.11,5.85,5.47,9.26c1.35,3.36,2.33,7.37,2.58,10.69c0.15,1.97,0.13,3.95-0.03,5.92
							c-0.07,0.91-0.18,1.82-0.32,2.73c-0.07,0.45-0.15,0.9-0.23,1.34c-0.04,0.22-0.09,0.44-0.13,0.66c0.11-0.5-0.01,0.02-0.07,0.24
							c-0.44,1.84-1.03,3.64-1.74,5.39c-0.08,0.2-0.18,0.41-0.26,0.61c-0.24,0.62,0.44-0.9-0.03,0.06c-0.19,0.4-0.38,0.79-0.58,1.19
							c-0.42,0.83-0.87,1.64-1.35,2.44c-0.11,0.19-0.23,0.37-0.34,0.56c-0.22,0.36-0.27,0.86,0.04-0.06
							c-0.12,0.36-0.52,0.76-0.75,1.07c-0.54,0.75-1.12,1.47-1.7,2.19c-0.81,0.99,0.67-0.71-0.19,0.22
							c-0.33,0.36-0.66,0.72-1.01,1.07c-0.3,0.31-0.61,0.61-0.93,0.91c-0.16,0.15-0.32,0.3-0.48,0.44
							c-0.14,0.12-0.85,0.79-0.23,0.21c0.63-0.59-0.48,0.39-0.62,0.51c-0.38,0.31-0.77,0.61-1.16,0.9c-0.35,0.26-0.7,0.52-1.06,0.76
							c-0.14,0.1-0.39,0.32-0.54,0.37c0.44-0.13,0.66-0.41,0.06-0.04c-0.79,0.49-1.59,0.96-2.41,1.39c-0.39,0.21-0.78,0.4-1.17,0.6
							c-0.2,0.1-0.4,0.19-0.6,0.28c-0.72,0.35,0.41-0.15-0.06,0.03c-1.77,0.69-3.51,1.35-5.35,1.83c-0.22,0.06-0.43,0.11-0.65,0.16
							c-0.09,0.02-0.77,0.18-0.37,0.09c0.4-0.09-0.29,0.06-0.37,0.07c-0.22,0.04-0.44,0.08-0.67,0.12
							c-1.01,0.18-2.03,0.32-3.05,0.41c-3.95,0.37-7.42,0.17-11.23-0.68c-14.63-3.27-25.99-15.34-28.4-30.14
							C90.86,202.85,90.76,201.41,90.75,199.4c-0.01-2.18-2.24-1.98-3.69-1.15c-1.73,0.99-4.21,3.23-4.2,5.47
							c0.04,8.53,2.59,16.73,7.59,23.67c4.69,6.52,11.49,11.5,19.07,14.14c8.14,2.83,17.14,2.83,25.36,0.34
							c8.8-2.67,16.5-8.24,22.3-15.31c5.56-6.77,9.14-15.28,9.84-24.03c0.69-8.56-1.38-17.03-5.83-24.35
							c-4.17-6.84-10.46-12.19-17.77-15.44c-7.95-3.53-16.91-4.13-25.36-2.25c-17.59,3.91-31.81,19.34-34.7,37.03
							c-0.33,2.05-0.49,4.12-0.5,6.2c-0.01,2.19,2.25,1.97,3.69,1.15C88.29,203.88,90.74,201.65,90.75,199.4z"/>
					</g>
				</g>
				<g id="Ring4_151_">
					<circle class="st1" cx="125" cy="201.56" r="14.65"/>
				</g>
			</g>
		</g>
	</g>
</g>
<g id="CtmLoader">
</g>
<g id="Texts">
</g>
<g id="LandingPageAndArtOld">
	<g id="LandingV2Sim">
	</g>
	<g id="LandingPageOld_1_">
	</g>
</g>
<g id="CtmSiteLandingPoster">
</g>
<g id="P3">
</g>
<g id="LandingArtOld">
</g>
<g id="LogoBaseRobiconFull">
</g>
<g id="LogobaseRobicon">
</g>
<g id="CtmLogoProgressIndicator">
</g>
<g id="Safe">
</g>
<g id="Elvis">
</g>
</svg>
