<?xml version="1.0" encoding="utf-8"?>
<!-- Generator: Adobe Adobe Illustrator 24.2.0, SVG Export Plug-In . SVG Version: 6.00 Build 0)  -->
<svg version="1.1" xmlns="http://www.w3.org/2000/svg" xmlns:xlink="http://www.w3.org/1999/xlink" x="0px" y="0px"
	 viewBox="0 0 220 220" style="enable-background:new 0 0 220 220;" xml:space="preserve">
<style type="text/css">
	.st0{fill:#2C0078;}
	.st1{fill:#EDA514;}
	.st2{fill:#2C0078;stroke:#380A0A;stroke-width:0.8291;stroke-miterlimit:10;}
	.st3{fill:url(#SVGID_1_);}
	.st4{fill:url(#SVGID_2_);}
	.st5{fill:#370003;}
	.st6{fill:none;}
	.st7{opacity:0.8902;}
	.st8{opacity:0.9412;}
	.st9{fill:none;stroke:#370003;stroke-width:0.4087;stroke-miterlimit:10;}
	.st10{fill:none;stroke:#370003;stroke-width:0.3001;stroke-miterlimit:10;}
	.st11{fill:none;stroke:#A6720A;stroke-linejoin:round;stroke-miterlimit:10;}
	.st12{fill:none;stroke:#A6720A;stroke-miterlimit:10;}
	.st13{fill:url(#SVGID_3_);stroke:#000000;stroke-miterlimit:10;}
	.st14{fill:url(#SVGID_4_);stroke:#000000;stroke-miterlimit:10;}
	.st15{fill:url(#SVGID_5_);stroke:#000000;stroke-miterlimit:10;}
	.st16{fill:url(#SVGID_6_);stroke:#000000;stroke-miterlimit:10;}
	.st17{fill:url(#SVGID_7_);}
	.st18{fill:url(#SVGID_8_);}
	.st19{opacity:0.8392;}
	.st20{display:none;}
	.st21{display:inline;}
	.st22{fill:#292E6E;}
	.st23{fill:#FFFFFF;}
	.st24{fill:none;stroke:#FFFFFF;stroke-width:2;stroke-miterlimit:10;}
	.st25{fill:none;stroke:#FFFFFF;stroke-width:3.7156;stroke-miterlimit:10;}
	.st26{fill:#C9C9C9;}
	.st27{opacity:0.502;fill:none;stroke:#FFFFFF;stroke-width:2;stroke-miterlimit:10;}
	.st28{fill:none;stroke:#FFFFFF;stroke-width:4;stroke-miterlimit:10;}
	.st29{fill:none;stroke:#FFFFFF;stroke-width:2.4957;stroke-miterlimit:10;}
	.st30{fill:none;stroke:#FFFFFF;stroke-width:3.5467;stroke-miterlimit:10;}
	.st31{fill:none;stroke:#370003;stroke-width:1.3433;stroke-miterlimit:10;}
	.st32{fill:none;stroke:#370003;stroke-width:0.6678;stroke-miterlimit:10;}
	.st33{fill:none;stroke:#370003;stroke-width:0.7451;stroke-miterlimit:10;}
	.st34{fill:none;stroke:#EDA514;stroke-miterlimit:10;}
	.st35{fill:none;stroke:#EDA514;stroke-width:0.618;stroke-miterlimit:10;}
	.st36{fill:none;stroke:#EDA514;stroke-width:0.382;stroke-miterlimit:10;}
	.st37{fill:none;stroke:#EDA514;stroke-width:0.2361;stroke-miterlimit:10;}
	.st38{display:none;fill:#FFFFFF;stroke:#000000;stroke-width:2;stroke-miterlimit:10;}
	.st39{display:none;fill:#2C0078;}
	.st40{fill:#B37B50;}
	.st41{fill:#380A0A;}
	.st42{fill:#A6720A;}
	.st43{fill:none;stroke:#380A0A;stroke-width:0.5304;stroke-miterlimit:10;}
	.st44{fill:#380A0A;stroke:#000000;stroke-width:0.5304;stroke-miterlimit:10;}
	.st45{fill:#B37B50;stroke:#380A0A;stroke-width:1.3576;stroke-miterlimit:10;}
	.st46{fill:#A6720A;stroke:#380A0A;stroke-width:2;stroke-linejoin:round;stroke-miterlimit:10;}
	.st47{fill:#A6720A;stroke:#380A0A;stroke-width:1.8889;stroke-linejoin:round;stroke-miterlimit:10;}
	.st48{fill:#A6720A;stroke:#380A0A;stroke-width:1.7778;stroke-linejoin:round;stroke-miterlimit:10;}
	.st49{fill:#A6720A;stroke:#380A0A;stroke-width:1.6667;stroke-linejoin:round;stroke-miterlimit:10;}
	.st50{fill:#A6720A;stroke:#380A0A;stroke-width:1.5556;stroke-linejoin:round;stroke-miterlimit:10;}
	.st51{fill:#A6720A;stroke:#380A0A;stroke-width:1.4444;stroke-linejoin:round;stroke-miterlimit:10;}
	.st52{fill:#A6720A;stroke:#380A0A;stroke-width:1.3333;stroke-linejoin:round;stroke-miterlimit:10;}
	.st53{fill:#A6720A;stroke:#380A0A;stroke-width:1.1111;stroke-linejoin:round;stroke-miterlimit:10;}
	.st54{fill:#A6720A;stroke:#380A0A;stroke-linejoin:round;stroke-miterlimit:10;}
	.st55{fill:#A6720A;stroke:#380A0A;stroke-width:0.7778;stroke-linejoin:round;stroke-miterlimit:10;}
	.st56{fill:#A6720A;stroke:#380A0A;stroke-width:0.3333;stroke-linejoin:round;stroke-miterlimit:10;}
	.st57{fill:#2C0078;stroke:#A6720A;stroke-width:2.2221;stroke-miterlimit:10;}
	.st58{opacity:0;fill:none;stroke:#EDA514;stroke-width:3;stroke-miterlimit:10;}
	.st59{fill:url(#BackgroundHorizontal_2_);}
	.st60{fill:none;stroke:#A6720A;stroke-width:2.0268;stroke-miterlimit:10;}
	.st61{opacity:0;fill:none;stroke:#EDA514;stroke-width:2.7363;stroke-miterlimit:10;}
	.st62{fill:none;stroke:#370003;stroke-width:0.5304;stroke-miterlimit:10;}
	.st63{fill:#8F853F;}
	.st64{fill:#852705;}
	.st65{fill:none;stroke:#370003;stroke-width:2.0268;stroke-miterlimit:10;}
	.st66{fill:#F9AF17;}
	.st67{fill:none;stroke:#852C08;stroke-miterlimit:10;}
	.st68{fill:#852D09;}
	.st69{fill:#B35095;}
	.st70{fill:none;stroke:#380A0A;stroke-width:0.4744;stroke-miterlimit:10;}
	.st71{fill:#380A0A;stroke:#000000;stroke-width:0.4744;stroke-miterlimit:10;}
	.st72{fill:#998F40;}
	.st73{fill:url(#BackgroundHorizontal_3_);}
	.st74{fill:#3453CF;}
</style>
<g id="CtmLogoBase">
</g>
<g id="TwitterOld">
</g>
<g id="Twitter">
</g>
<g id="General">
</g>
<g id="App">
</g>
<g id="Monies">
	<g id="InLineExtendBold" class="st7">
		<g id="X">
			<g id="LogoBase_69_">
				<g id="Ring1_255_">
					<g>
						<path class="st1" d="M13.95,107.84c0.01-5.33,0.42-10.65,1.26-15.92c0.18-1.12,0.38-2.24,0.6-3.36c0.07-0.33,0.13-0.67,0.2-1
							c0.22-1.1-0.16,0.67,0.09-0.42c0.15-0.66,0.3-1.32,0.46-1.98c0.61-2.51,1.31-4.99,2.11-7.45c0.76-2.33,1.6-4.63,2.53-6.89
							c0.25-0.62,0.52-1.23,0.78-1.84c0.42-0.99-0.26,0.54,0.03-0.07c0.12-0.25,0.23-0.5,0.34-0.76c0.55-1.2,1.13-2.4,1.73-3.58
							c1.14-2.26,2.37-4.47,3.69-6.63c0.28-0.47,0.57-0.94,0.86-1.4c0.18-0.28,0.35-0.56,0.53-0.83c0.45-0.71-0.07,0.09-0.13,0.2
							c0.62-1.14,1.48-2.2,2.23-3.25c1.46-2.04,3-4.03,4.61-5.96c0.35-0.42,0.71-0.83,1.06-1.25c0.76-0.89-0.8,0.89-0.01,0.02
							c0.22-0.24,0.44-0.49,0.66-0.73c0.81-0.89,1.63-1.77,2.46-2.63c1.75-1.8,3.58-3.52,5.44-5.2c0.87-0.78-0.91,0.77-0.02,0.01
							c0.17-0.14,0.33-0.28,0.5-0.43c0.5-0.42,1-0.85,1.51-1.26c1.01-0.83,2.05-1.64,3.09-2.43c0.87-0.66,1.76-1.3,2.65-1.93
							c0.54-0.38,1.08-0.75,1.62-1.12c0.23-0.15,0.46-0.3,0.68-0.46c1.02-0.69-0.6,0.37,0.22-0.14c2.13-1.35,4.3-2.65,6.52-3.85
							c2.14-1.16,4.32-2.22,6.52-3.23c1.02-0.47-0.81,0.34,0.22-0.1c0.31-0.13,0.61-0.26,0.92-0.39c0.51-0.22,1.02-0.43,1.54-0.63
							c1.24-0.5,2.49-0.97,3.74-1.42c2.37-0.84,4.77-1.6,7.2-2.26c1.14-0.31,2.29-0.6,3.44-0.87c0.33-0.08,0.66-0.15,0.99-0.23
							c0.05-0.01,1.14-0.24,0.42-0.09c0.67-0.14,1.33-0.27,2-0.4c5.09-0.96,10.26-1.52,15.44-1.68c10.36-0.32,20.47,0.95,30.54,3.9
							c19.03,5.58,35.96,16.86,48.56,32.2c6.28,7.65,11.31,16.06,15.03,25.22c1.89,4.66,3.43,9.47,4.6,14.36
							c1.14,4.8,2.01,10.15,2.36,14.78c0.4,5.3,0.39,10.62-0.04,15.92c-0.21,2.58-0.52,5.14-0.93,7.7c-0.2,1.24-0.42,2.47-0.66,3.7
							c-0.07,0.33-0.13,0.67-0.2,1c0.03-0.15,0.14-0.61-0.02,0.09c-0.17,0.77-0.35,1.54-0.54,2.31c-1.2,4.88-2.77,9.67-4.69,14.32
							c-0.21,0.51-0.43,1.02-0.65,1.53c-0.44,1.03,0.37-0.8-0.1,0.22c-0.14,0.3-0.27,0.6-0.41,0.91c-0.51,1.1-1.04,2.19-1.59,3.28
							c-1.14,2.26-2.37,4.47-3.69,6.63c-0.31,0.52-0.63,1.03-0.95,1.54c-0.15,0.23-0.29,0.46-0.44,0.69
							c-0.61,0.97,0.59-0.87-0.05,0.08c-0.73,1.09-1.47,2.18-2.24,3.24c-1.41,1.95-2.88,3.85-4.42,5.7
							c-0.39,0.46-0.99,0.96-1.27,1.5c0.44-0.83,0.53-0.6,0.23-0.26c-0.22,0.24-0.44,0.49-0.66,0.73c-0.88,0.97-1.78,1.93-2.69,2.86
							c-1.68,1.72-3.43,3.36-5.22,4.97c-0.87,0.78,0.91-0.77,0.02-0.01c-0.25,0.21-0.5,0.43-0.75,0.64
							c-0.42,0.35-0.84,0.7-1.26,1.05c-1.01,0.83-2.05,1.64-3.09,2.43c-0.96,0.73-1.93,1.43-2.92,2.12
							c-0.45,0.31-0.9,0.62-1.35,0.93c-0.27,0.18-0.55,0.36-0.82,0.55c-0.43,0.28-0.37,0.24,0.2-0.13
							c-0.18,0.12-0.37,0.24-0.55,0.36c-4.18,2.67-8.55,5.02-13.07,7.04c0.96-0.43-0.64,0.27-0.84,0.35
							c-0.61,0.26-1.23,0.51-1.85,0.76c-1.14,0.45-2.28,0.88-3.43,1.29c-2.42,0.86-4.88,1.63-7.36,2.31c-1.2,0.32-2.4,0.63-3.61,0.9
							c-0.33,0.08-0.66,0.15-0.99,0.22c-0.1,0.02-0.67,0.14-0.09,0.02c-0.78,0.16-1.56,0.32-2.34,0.46
							c-2.47,0.46-4.97,0.82-7.47,1.09c-10.51,1.13-20.72,0.63-30.97-1.55c-19.45-4.15-37.18-14.11-50.89-28.51
							c-13.82-14.51-22.92-32.95-26.02-52.78C14.3,117.59,13.95,112.99,13.95,107.84c0-2.19-2.24-1.98-3.69-1.15
							c-1.73,0.99-4.21,3.23-4.2,5.47c0.04,21.31,6.6,42.12,19.01,59.48c11.89,16.62,28.89,29.43,48.11,36.36
							c20.37,7.34,42.97,7.82,63.72,1.74c20.76-6.08,39.23-18.76,52.95-35.41c13.67-16.58,22.17-37.34,23.8-58.79
							c1.62-21.29-3.49-42.62-14.56-60.87c-10.66-17.58-26.72-31.57-45.48-39.93c-19.43-8.66-41.6-10.89-62.4-6.49
							C70.07,12.72,50.58,23.72,35.69,39.4C20.74,55.15,10.62,75.09,7.26,96.58c-0.81,5.15-1.2,10.36-1.21,15.58
							c0,2.19,2.24,1.98,3.69,1.15C11.48,112.32,13.94,110.08,13.95,107.84z"/>
					</g>
				</g>
			</g>
		</g>
	</g>
	<g>
		<g>
			<path class="st1" d="M150.84,63.86c-2.88,2.88-5.76,5.76-8.64,8.64c-6.92,6.92-13.84,13.84-20.76,20.76
				c-8.37,8.37-16.75,16.75-25.12,25.12c-7.24,7.24-14.48,14.48-21.73,21.73c-3.53,3.53-7.09,7.02-10.58,10.58
				c-0.05,0.05-0.1,0.1-0.15,0.15c-1.21,1.21-2.45,2.86-2.97,4.53c-0.29,0.92-0.59,2.66,0.32,3.43c2.39,2,6.34-1.03,7.95-2.65
				c2.88-2.88,5.76-5.76,8.64-8.64c6.92-6.92,13.84-13.84,20.76-20.76c8.37-8.37,16.75-16.75,25.12-25.12
				c7.24-7.24,14.48-14.48,21.73-21.73c3.53-3.53,7.09-7.02,10.58-10.58c0.05-0.05,0.1-0.1,0.15-0.15c1.21-1.21,2.45-2.86,2.97-4.53
				c0.29-0.92,0.59-2.66-0.32-3.43C156.4,59.21,152.45,62.24,150.84,63.86L150.84,63.86z"/>
		</g>
	</g>
	<g>
		<g>
			<path class="st1" d="M157.02,149.95c-2.89-2.89-5.78-5.78-8.68-8.68c-6.91-6.91-13.83-13.83-20.74-20.74
				c-8.39-8.39-16.78-16.78-25.17-25.17c-7.23-7.23-14.45-14.45-21.68-21.68c-2.38-2.38-4.77-4.77-7.15-7.15
				c-1.12-1.12-2.2-2.36-3.4-3.4c-0.05-0.05-0.1-0.1-0.15-0.15c-1.45-1.45-4.3,0.72-5.3,1.77c-0.98,1.02-3.25,3.82-1.77,5.3
				c2.89,2.89,5.78,5.78,8.68,8.68c6.91,6.91,13.83,13.83,20.74,20.74c8.39,8.39,16.78,16.78,25.17,25.17
				c7.23,7.23,14.45,14.45,21.68,21.68c2.38,2.38,4.77,4.77,7.15,7.15c1.12,1.12,2.2,2.36,3.4,3.4c0.05,0.05,0.1,0.1,0.15,0.15
				c1.45,1.45,4.3-0.72,5.3-1.77C156.23,154.23,158.5,151.43,157.02,149.95L157.02,149.95z"/>
		</g>
	</g>
</g>
<g id="CtmLoader">
</g>
<g id="Texts">
</g>
<g id="LandingPageAndArtOld">
	<g id="LandingV2Sim">
	</g>
	<g id="LandingPageOld_1_">
	</g>
</g>
<g id="CtmSiteLandingPoster">
</g>
<g id="P3">
</g>
<g id="LandingArtOld">
</g>
<g id="LogoBaseRobiconFull">
</g>
<g id="LogobaseRobicon">
</g>
<g id="CtmLogoProgressIndicator">
</g>
<g id="Safe">
</g>
<g id="Elvis">
</g>
</svg>
