<?xml version="1.0" encoding="utf-8"?>
<!-- Generator: Adobe Adobe Illustrator 24.2.0, SVG Export Plug-In . SVG Version: 6.00 Build 0)  -->
<svg version="1.1" xmlns="http://www.w3.org/2000/svg" xmlns:xlink="http://www.w3.org/1999/xlink" x="0px" y="0px"
	 viewBox="-20 -20 40 40" style="enable-background:new 0 0 40 40;" xml:space="preserve">
<style type="text/css">
	.st1{fill:#EDA514;}
</style>

<g id="CtmLogoProgressIndicator">
	<g id="PILogo">
		<g id="PIRing1">
			<g>
				<path class="st1" d="M-94.48-3.02c0.01-3.49,0.18-6.99,0.54-10.46c0.18-1.71,0.4-3.42,0.67-5.12c0.25-1.58,0.33-3.54,0.92-5.03
					c-0.04,0.1-0.25,1.15-0.06,0.28c0.04-0.17,0.07-0.33,0.11-0.5c0.09-0.39,0.18-0.77,0.27-1.16c0.21-0.88,0.43-1.75,0.66-2.62
					c0.43-1.62,0.91-3.24,1.42-4.84c1.03-3.19,2.36-6.23,3.54-9.35c-0.03,0.07-0.61,1.35-0.21,0.48c0.07-0.15,0.14-0.3,0.21-0.45
					c0.16-0.35,0.32-0.7,0.49-1.05c0.38-0.8,0.76-1.59,1.16-2.38c0.74-1.48,1.52-2.93,2.33-4.37c0.81-1.43,1.66-2.84,2.54-4.24
					c0.15-0.24,0.93-1.44,0.25-0.39c-0.65,1.01,0.09-0.13,0.26-0.38c0.49-0.73,0.99-1.45,1.49-2.16c0.95-1.34,1.93-2.65,2.95-3.94
					c0.98-1.25,1.96-2.71,3.13-3.79c0.13-0.12-1.2,1.35-0.69,0.79c0.15-0.16,0.29-0.33,0.44-0.49c0.25-0.28,0.51-0.57,0.77-0.85
					c0.59-0.64,1.19-1.28,1.79-1.91c1.14-1.18,2.3-2.33,3.49-3.45c0.56-0.52,1.12-1.04,1.69-1.55c0.24-0.21,1.34-1.18,0.28-0.25
					c-1.03,0.9,0.13-0.11,0.41-0.35c1.25-1.06,2.52-2.09,3.82-3.09c1.3-1,2.63-1.97,3.98-2.9c0.67-0.46,1.34-0.97,2.04-1.38
					c0.11-0.06-1.34,0.86-0.74,0.48c0.19-0.12,0.37-0.24,0.55-0.35c0.37-0.24,0.74-0.47,1.11-0.7c2.81-1.73,5.7-3.33,8.67-4.78
					c0.74-0.36,1.49-0.72,2.25-1.06c0.22-0.1,1.48-0.66,0.52-0.24c-0.92,0.41,0.4-0.17,0.68-0.29c1.53-0.65,3.08-1.26,4.65-1.83
					c3.15-1.15,6.36-2.15,9.62-2.97c0.77-0.19,1.53-0.38,2.3-0.56c0.39-0.09,0.77-0.16,1.16-0.26c-1.42,0.35,0.25-0.05,0.56-0.11
					c1.68-0.33,3.36-0.62,5.05-0.86c6.9-1,13.91-1.27,20.88-0.82c0.41,0.03,0.81,0.06,1.21,0.08c0.18,0.01,0.81,0.07-0.05-0.01
					c0.17,0.01,0.35,0.03,0.52,0.05c0.86,0.08,1.72,0.17,2.58,0.27c1.7,0.2,3.4,0.45,5.1,0.73c3.34,0.57,6.66,1.31,9.93,2.22
					c6.42,1.79,12.67,4.22,18.6,7.26c1.47,0.75,2.92,1.54,4.35,2.36c-0.28-0.16-0.56-0.32-0.83-0.48
					c11.89,6.87,22.34,16.14,30.53,27.17c2.32,3.12,4.45,6.38,6.4,9.75c-0.16-0.28-0.32-0.56-0.48-0.83
					c4.14,7.22,7.39,14.93,9.62,22.95c1.14,4.09,2.01,8.26,2.62,12.46c0.15,1.02,0.28,2.05,0.39,3.07c0.06,0.52,0.11,1.03,0.16,1.55
					c0.02,0.23,0.04,0.46,0.06,0.69c0.09,0.99-0.04-0.61,0.02,0.29c0.15,2.21,0.26,4.42,0.29,6.64c0.04,4.31-0.18,8.62-0.69,12.89
					c-0.25,2.16-0.58,4.3-0.97,6.44c-0.09,0.5-0.19,1-0.29,1.51c-0.05,0.27-0.07,0.58-0.17,0.83c0.04-0.11,0.25-1.15,0.06-0.28
					c-0.25,1.1-0.5,2.2-0.78,3.29c-1.03,4.01-2.3,7.95-3.82,11.79c-0.37,0.93-0.75,1.85-1.14,2.77c-0.07,0.16-0.52,1.18-0.09,0.22
					c0.39-0.86,0.07-0.15-0.03,0.06c-0.25,0.55-0.51,1.11-0.77,1.65c-0.87,1.84-1.8,3.66-2.79,5.44c-0.98,1.78-2.02,3.53-3.1,5.24
					c-0.15,0.23-0.3,0.46-0.44,0.69c-0.46,0.73,0.99-1.49,0.3-0.47c-0.24,0.36-0.49,0.73-0.73,1.09c-0.62,0.9-1.25,1.8-1.89,2.68
					c-1.22,1.68-2.5,3.32-3.83,4.91c-0.28,0.34-0.56,0.67-0.84,1c-0.18,0.21-0.36,0.41-0.53,0.62c-0.59,0.69,1.32-1.49,0.47-0.54
					c-0.69,0.77-1.39,1.54-2.1,2.3c-1.39,1.47-2.81,2.9-4.29,4.28c-0.72,0.67-1.45,1.33-2.18,1.99c-0.81,0.73,0.67-0.59,0.67-0.58
					c-0.18,0.19-0.42,0.36-0.62,0.53c-0.46,0.39-0.92,0.78-1.38,1.16c-1.56,1.29-3.16,2.53-4.79,3.71c-0.8,0.58-1.6,1.15-2.41,1.7
					c-0.41,0.28-0.82,0.55-1.23,0.83c-0.86,0.58,0.58-0.38,0.61-0.39c-0.27,0.19-0.55,0.36-0.83,0.53
					c-3.53,2.24-7.2,4.26-10.99,6.03c-0.4,0.19-0.8,0.37-1.2,0.56c-0.2,0.09-0.41,0.18-0.61,0.27c1.49-0.72,0.7-0.31,0.32-0.15
					c-0.97,0.41-1.94,0.82-2.92,1.21c-1.97,0.78-3.96,1.49-5.98,2.14c-2.03,0.65-4.08,1.24-6.14,1.76c-0.98,0.25-1.97,0.48-2.97,0.7
					c-0.28,0.06-0.92,0.13,0.28-0.06c-0.22,0.04-0.45,0.09-0.67,0.14c-0.61,0.12-1.23,0.24-1.84,0.35
					c-4.24,0.78-8.53,1.28-12.84,1.5c-4.33,0.22-8.64,0.14-12.97-0.16c-1.12-0.08,0.57,0.06-0.12-0.01
					c-0.29-0.03-0.58-0.05-0.86-0.08c-0.46-0.04-0.92-0.09-1.38-0.14c-1.14-0.13-2.28-0.27-3.41-0.44
					c-2.14-0.31-4.27-0.69-6.38-1.14c-8.13-1.73-16.03-4.49-23.48-8.19c-1.82-0.91-3.62-1.87-5.38-2.88
					c0.28,0.16,0.56,0.32,0.83,0.48c-11.89-6.87-22.34-16.14-30.53-27.17c-2.32-3.12-4.45-6.38-6.4-9.75
					c0.16,0.28,0.32,0.56,0.48,0.83C-87.93,34.13-92.23,21.3-93.84,8.06c-0.12-0.97-0.22-1.95-0.31-2.92
					c-0.02-0.17-0.03-0.35-0.05-0.52c0.08,0.91,0.01,0.07-0.01-0.12c-0.04-0.52-0.07-1.04-0.1-1.56
					C-94.42,0.95-94.47-1.04-94.48-3.02c-0.01-3.06-3.13-2.77-5.16-1.61c-1.56,0.89-3.02,2.1-4.06,3.56
					c-0.83,1.15-1.82,2.62-1.82,4.1c0.04,21.54,6.64,42.49,19.17,60.03C-74.41,79.75-57.3,92.59-38,99.54
					c20.59,7.42,43.43,7.83,64.4,1.69c21.41-6.27,40.37-19.45,54.51-36.6c13.93-16.9,22.66-38.1,24.32-59.96
					c1.64-21.52-3.54-42.99-14.72-61.42C79.8-74.4,63.64-88.41,44.79-96.81c-19.51-8.7-41.83-10.92-62.71-6.51
					c-21.75,4.59-41.79,15.89-57.09,32.02c-15.39,16.21-25.84,36.63-29.3,58.76c-0.81,5.15-1.2,10.36-1.21,15.58
					c-0.01,3.06,3.14,2.77,5.16,1.61c1.56-0.89,3.02-2.1,4.06-3.56C-95.47-0.09-94.48-1.55-94.48-3.02z"/>
			</g>
		</g>
		<g id="PIRing2">
			<g>
				<path class="st1" d="M-57.86-2.16c0.01-3.24,0.25-6.48,0.75-9.69c0.11-0.73,0.24-1.46,0.38-2.18c0.03-0.16,0.25-1.19,0.12-0.59
					c0.09-0.39,0.17-0.77,0.27-1.15c0.37-1.53,0.79-3.04,1.28-4.53c0.48-1.48,1.02-2.94,1.61-4.39c0.13-0.31,0.26-0.61,0.39-0.92
					c0.05-0.12,0.35-0.77,0.11-0.26c-0.22,0.48,0.02-0.03,0.05-0.11c0.33-0.7,0.66-1.4,1-2.09c0.69-1.37,1.44-2.72,2.23-4.04
					c0.2-0.33,0.4-0.66,0.6-0.98c0.18-0.29,0.62-1.3,0.14-0.22c0.3-0.66,0.88-1.31,1.3-1.89c0.89-1.24,1.83-2.45,2.81-3.63
					c0.13-0.16,0.61-0.55,0.64-0.75c-0.01,0.07-0.85,0.95-0.23,0.26c0.11-0.12,0.22-0.24,0.33-0.37c0.51-0.57,1.04-1.12,1.57-1.67
					c1.07-1.1,2.19-2.13,3.31-3.16c0.41-0.38-0.39,0.34-0.39,0.34c0.09-0.01,0.4-0.34,0.5-0.43c0.25-0.21,0.5-0.42,0.76-0.63
					c0.63-0.52,1.28-1.02,1.93-1.52c0.57-0.43,1.14-0.85,1.72-1.25c0.31-0.22,0.63-0.43,0.95-0.65c0.13-0.09,0.27-0.21,0.41-0.27
					c-0.25,0.11-0.71,0.46-0.2,0.13c1.3-0.82,2.62-1.61,3.97-2.34c0.68-0.37,1.36-0.72,2.06-1.06c0.3-0.15,0.6-0.29,0.89-0.43
					c0.3-0.14,1.34-0.61,0.52-0.25c1.42-0.62,2.87-1.2,4.34-1.71c1.42-0.5,2.87-0.95,4.33-1.34c0.76-0.21,1.53-0.4,2.29-0.57
					c0.17-0.04,0.33-0.08,0.5-0.11c-0.07,0.01-0.49,0.1-0.08,0.02c0.44-0.09,0.89-0.18,1.34-0.26c3.12-0.57,6.28-0.9,9.44-0.99
					c6.28-0.18,12.29,0.6,18.44,2.41C26.19-52,36.49-45.1,44.23-35.68c3.84,4.67,6.88,9.74,9.15,15.33
					c2.29,5.62,3.85,12.03,4.29,17.79c0.25,3.2,0.24,6.42-0.01,9.62c-0.13,1.6-0.31,3.2-0.56,4.79c-0.11,0.73-0.24,1.46-0.38,2.18
					c-0.03,0.17-0.25,1.17-0.12,0.59c-0.1,0.44-0.2,0.88-0.31,1.32c-0.73,2.98-1.68,5.91-2.85,8.76c-0.15,0.36-0.3,0.72-0.45,1.07
					c-0.03,0.08-0.27,0.59-0.05,0.11c0.23-0.51-0.06,0.14-0.12,0.26c-0.33,0.7-0.66,1.4-1.01,2.08c-0.7,1.37-1.45,2.72-2.24,4.03
					c-0.17,0.28-0.34,0.56-0.52,0.84c-0.12,0.19-0.24,0.37-0.35,0.55c-0.28,0.45,0.22-0.33,0.22-0.33c-0.29,0.66-0.88,1.3-1.3,1.89
					c-0.89,1.24-1.83,2.45-2.81,3.63c-0.15,0.18-0.94,1.1-0.41,0.49c0.56-0.64-0.32,0.35-0.43,0.48c-0.51,0.56-1.04,1.12-1.57,1.67
					c-0.5,0.51-1,1-1.51,1.49c-0.47,0.45-1.51,1.08-1.81,1.66c0,0.01,0.82-0.69,0.39-0.34c-0.13,0.1-0.25,0.21-0.37,0.32
					c-0.29,0.25-0.59,0.49-0.88,0.73c-0.59,0.48-1.2,0.95-1.81,1.41c-0.61,0.46-1.23,0.91-1.86,1.35c-0.27,0.19-0.54,0.37-0.81,0.56
					c-0.14,0.1-0.73,0.51-0.17,0.12c0.56-0.39-0.06,0.04-0.18,0.11c-1.3,0.82-2.62,1.6-3.98,2.33c-0.63,0.34-1.27,0.67-1.91,0.98
					c-0.35,0.17-0.69,0.34-1.04,0.5c-0.29,0.14-1.14,0.51-0.37,0.18c-2.86,1.25-5.81,2.29-8.82,3.1c-0.71,0.19-1.42,0.37-2.13,0.53
					c-0.17,0.04-0.33,0.08-0.5,0.11c0.59-0.13,0.02,0-0.09,0.02c-0.45,0.09-0.89,0.18-1.34,0.26c-1.52,0.27-3.05,0.49-4.59,0.65
					c-6.43,0.67-12.47,0.36-18.71-0.98c-11.97-2.57-22.79-8.68-31.21-17.55c-8.44-8.89-13.95-20.11-15.86-32.25
					C-57.66,3.64-57.85,1.02-57.86-2.16c-0.01-2.18-2.24-1.98-3.69-1.15c-1.73,0.99-4.21,3.23-4.2,5.47
					c0.04,13.36,4.09,26.32,11.85,37.21c7.43,10.42,18.12,18.42,30.16,22.72c12.83,4.59,27.07,4.78,40.1,0.91
					c13.39-3.97,25.22-12.28,34.05-23.02C59.05,29.48,64.5,16.31,65.56,2.74c1.05-13.41-2.17-26.78-9.13-38.27
					c-6.64-10.96-16.67-19.63-28.36-24.83c-12.29-5.48-26.27-6.73-39.39-3.91C-24.76-61.4-37.17-54.25-46.61-44.3
					c-9.63,10.15-16.2,22.91-18.38,36.77c-0.5,3.21-0.75,6.44-0.75,9.69c-0.01,2.19,2.25,1.97,3.69,1.15
					C-60.32,2.31-57.87,0.08-57.86-2.16z"/>
			</g>
		</g>
		<g id="PIRing3">
			<g>
				<path class="st1" d="M-34.25-2.16c0.01-1.96,0.15-3.92,0.45-5.86c0.07-0.45,0.15-0.9,0.23-1.34c0.04-0.22,0.09-0.44,0.13-0.66
					c-0.13,0.59,0,0.03,0.03-0.08c0.25-0.97,0.5-1.95,0.81-2.9c0.27-0.84,0.57-1.68,0.91-2.5c0.08-0.2,0.17-0.41,0.25-0.61
					c0.4-0.99-0.28,0.53,0.03-0.07c0.22-0.44,0.42-0.89,0.64-1.34c0.4-0.78,0.82-1.55,1.27-2.3c0.22-0.37,0.43-0.77,0.69-1.11
					c-0.81,1.05,0.25-0.33,0.44-0.6c0.51-0.71,1.04-1.4,1.6-2.07c0.03-0.04,0.41-0.41,0.42-0.5c-0.06,0.4-0.68,0.76-0.23,0.27
					c0.37-0.4,0.74-0.8,1.12-1.19c0.3-0.31,0.61-0.61,0.93-0.91c0.23-0.22,0.85-0.6,0.96-0.88c-0.18,0.46-0.75,0.63-0.26,0.24
					c0.17-0.14,0.33-0.28,0.5-0.42c0.42-0.34,0.85-0.68,1.29-1c0.35-0.26,0.7-0.52,1.06-0.76c0.12-0.08,0.38-0.31,0.54-0.37
					c-0.76,0.26-0.54,0.34-0.2,0.13c0.84-0.52,1.68-1.02,2.55-1.48c0.39-0.21,0.78-0.4,1.17-0.6c0.26-0.12,1.36-0.62,0.51-0.25
					c0.92-0.39,1.84-0.76,2.78-1.08c0.84-0.29,1.7-0.55,2.56-0.78c0.43-0.12,0.87-0.22,1.31-0.32c-0.59,0.14-0.03,0,0.08-0.02
					c0.33-0.06,0.67-0.13,1-0.19c1.93-0.33,3.88-0.51,5.83-0.55c3.73-0.07,7.31,0.44,11.04,1.57c7.07,2.14,13.23,6.35,17.92,12.1
					c2.32,2.85,4.11,5.85,5.47,9.26c1.35,3.36,2.33,7.37,2.58,10.69c0.15,1.97,0.13,3.95-0.03,5.92c-0.07,0.91-0.18,1.82-0.32,2.73
					c-0.07,0.45-0.15,0.9-0.23,1.34c-0.04,0.22-0.09,0.44-0.13,0.66c0.11-0.5-0.01,0.02-0.07,0.24c-0.44,1.84-1.03,3.64-1.74,5.39
					c-0.08,0.2-0.18,0.41-0.26,0.61c-0.24,0.62,0.44-0.9-0.03,0.06c-0.19,0.4-0.38,0.79-0.58,1.19c-0.42,0.83-0.87,1.64-1.35,2.44
					c-0.11,0.19-0.23,0.37-0.34,0.56c-0.22,0.36-0.27,0.86,0.04-0.06c-0.12,0.36-0.52,0.76-0.75,1.07c-0.54,0.75-1.12,1.47-1.7,2.19
					c-0.81,0.99,0.67-0.71-0.19,0.22c-0.33,0.36-0.66,0.72-1.01,1.07c-0.3,0.31-0.61,0.61-0.93,0.91c-0.16,0.15-0.32,0.3-0.48,0.44
					c-0.14,0.12-0.85,0.79-0.23,0.21c0.63-0.59-0.48,0.39-0.62,0.51c-0.38,0.31-0.77,0.61-1.16,0.9c-0.35,0.26-0.7,0.52-1.06,0.76
					c-0.14,0.1-0.39,0.32-0.54,0.37c0.44-0.13,0.66-0.41,0.06-0.04c-0.79,0.49-1.59,0.96-2.41,1.39c-0.39,0.21-0.78,0.4-1.17,0.6
					c-0.2,0.1-0.4,0.19-0.6,0.28c-0.72,0.35,0.41-0.15-0.06,0.03c-1.77,0.69-3.51,1.35-5.35,1.83c-0.22,0.06-0.43,0.11-0.65,0.16
					c-0.09,0.02-0.77,0.18-0.37,0.09c0.4-0.09-0.29,0.06-0.37,0.07c-0.22,0.04-0.44,0.08-0.67,0.12c-1.01,0.18-2.03,0.32-3.05,0.41
					c-3.95,0.37-7.42,0.17-11.23-0.68c-14.63-3.27-25.99-15.34-28.4-30.14C-34.14,1.29-34.24-0.16-34.25-2.16
					c-0.01-2.18-2.24-1.98-3.69-1.15c-1.73,0.99-4.21,3.23-4.2,5.47c0.04,8.53,2.59,16.73,7.59,23.67
					c4.69,6.52,11.49,11.5,19.07,14.14c8.14,2.83,17.14,2.83,25.36,0.34c8.8-2.67,16.5-8.24,22.3-15.31
					c5.56-6.77,9.14-15.28,9.84-24.03c0.69-8.56-1.38-17.03-5.83-24.35c-4.17-6.84-10.46-12.19-17.77-15.44
					c-7.95-3.53-16.91-4.13-25.36-2.25c-17.59,3.91-31.81,19.34-34.7,37.03c-0.33,2.05-0.49,4.12-0.5,6.2
					c-0.01,2.19,2.25,1.97,3.69,1.15C-36.71,2.31-34.26,0.08-34.25-2.16z"/>
			</g>
		</g>
		<g id="PIRing4">
			<circle id="PIRing4c" class="st1" cx="0" cy="0" r="14.65"/>
		</g>
	</g>
</g>

</svg>
